<svg id="Layer_1" data-name="Layer 1" xmlns="http://www.w3.org/2000/svg" viewBox="0 0 1080 1080"><defs><style>.cls-1{fill:#130c0e;}.cls-2{fill:#fbfbe7;}</style></defs><rect class="cls-1" x="1.22" y="-1.38" width="1078.85" height="1081.41"/><path class="cls-2" d="M238.81,576.27H172c1.28-1.52,1.86-2.59,2.75-3.21,3.51-2.42,7.22-4.58,10.64-7.12a5.57,5.57,0,0,0,2.13-3.75q.17-54.51,0-109a5.85,5.85,0,0,0-2.24-4c-3.42-2.52-7.16-4.63-10.71-7a8.51,8.51,0,0,1-1.67-2.19,7.29,7.29,0,0,1,2.44-1c25.77,0,51.53-.17,77.29.11a65.43,65.43,0,0,1,28.23,6.49c16.48,8,22.9,23.79,21,40.7-2.54,22.55-18.35,33.18-36,37.17-9.8,2.22-19.74,2-29.69,2-4.27,0-8.55,0-12.83,0-1.75,0-2.51.59-2.5,2.41,0,11.61,0,23.23.11,34.84a4.53,4.53,0,0,0,2.09,3.12c4.47,2.57,9.11,4.84,13.63,7.34a15.49,15.49,0,0,1,2.66,2.42Zm-18-94.18c0,11.8,0,23.61,0,35.41,0,2.08.45,3.08,2.81,3,5.56-.15,11.14.12,16.69-.11,9.43-.4,17.1-4.45,21.32-12.95,7.87-15.82,8.19-32.2.69-48.17-4.88-10.37-13.77-15.55-25.46-15.46-4.18,0-8.36.16-12.52-.05-2.74-.14-3.6.75-3.57,3.5C220.92,458.88,220.84,470.48,220.85,482.09Z"/><path class="cls-2" d="M681,576.29c-1.76.1-2.71.19-3.67.19-10,0-20.09-.1-30.14.07-2.57.05-3.71-.88-4.4-3.18-.91-3-2-6-3.14-9-.32-.9-.76-1.75-1.13-2.57-3.3,3.35-6.17,6.8-9.57,9.6-8.75,7.2-19.06,8.65-29.82,6.52a39.71,39.71,0,0,1-12.66-4.85c-12.75-7.71-15.64-31.48-.59-42.25,7.82-5.6,16.71-8.07,25.78-10.36q11.82-3,23.59-6.22c.93-.26,2.33-1.4,2.32-2.11-.11-7.62.17-15.33-.91-22.84-1.26-8.73-12.14-13.25-19.89-8.88a8.44,8.44,0,0,0-1.87,1.9Q602,497,589.07,511.6a13,13,0,0,1-2.83,1.85,16.06,16.06,0,0,1-.8-3.25c-.41-9.32-.68-18.65-1.12-28-.11-2.18.48-3.17,2.76-3.54,17.2-2.8,34.45-5,51.92-3.38a40.08,40.08,0,0,1,18.26,5.91c7.91,5.07,11.87,12.4,11.92,21.7q.15,30.07,0,60.17a5.41,5.41,0,0,0,2.61,5.15,84.73,84.73,0,0,1,6.91,5.19A19.91,19.91,0,0,1,681,576.29Zm-43.31-58.75c-4.86,1.73-9.07,3.13-13.22,4.71-14.14,5.37-20.35,17.62-16.39,32.2,2.68,9.84,13.05,14.46,21.56,9.3,4.93-3,8.64-6.69,8.2-13.53-.59-9-.15-18-.15-27.06Z"/><path class="cls-2" d="M897.93,576.28c-1.76.1-2.71.2-3.66.2-10.15,0-20.29-.05-30.44,0-2.09,0-3.25-.52-3.87-2.64-1-3.23-2.22-6.36-3.37-9.53-.33-.88-.73-1.73-1.26-3-1.54,1.89-2.72,3.46-4,4.93-9.62,11-21.75,14.22-35.83,11.6-8-1.48-14.89-4.79-19-12-6.52-11.6-6.13-28.42,10.26-37.68,6.93-3.92,14.49-5.83,22.1-7.76q11.82-3,23.58-6.26c.84-.23,2.06-1.33,2-2-.14-7.62.1-15.32-.93-22.83-1.19-8.69-12.19-13.31-19.85-8.92a7.56,7.56,0,0,0-1.67,1.67Q819,497,805.85,511.8a11.63,11.63,0,0,1-2.6,1.65,13.23,13.23,0,0,1-.84-2.92c-.4-9.52-.69-19-1.12-28.57-.09-1.93.41-2.85,2.43-3.19,17.49-2.92,35-5.12,52.81-3.41a39.75,39.75,0,0,1,17.15,5.53c8.24,5,12.41,12.44,12.47,22,.11,20.06.07,40.12,0,60.17a5.4,5.4,0,0,0,2.59,5.18,84.46,84.46,0,0,1,6.9,5.18A19.59,19.59,0,0,1,897.93,576.28Zm-43.3-58.75c-4.82,1.71-9,3.13-13.19,4.7-14.22,5.38-20.54,18-16.36,32.53,2.77,9.63,13.17,14.1,21.53,9,4.93-3,8.63-6.75,8.16-13.58-.59-8.59-.14-17.25-.14-25.89Z"/><path class="cls-2" d="M509,571.66c1.64.13,2.59.26,3.55.26,6.66,0,13.33-.08,20,.06a5.6,5.6,0,0,0,5.18-2.67c7.11-9.92,14.32-19.76,21.5-29.63a4.56,4.56,0,0,1,.7-1c.72-.59,1.5-1.11,2.26-1.66a9,9,0,0,1,.87,2.59c.05,5.06,0,10.12-.06,15.18q0,9.39-.12,18.76c0,.87-.11,1.74-.18,2.75H473.35c.63-2.4.72-4.76,1.79-6.52Q501,527.39,527,485.07c.54-.89,1-1.84,1.7-3.24-1.46-.13-2.4-.29-3.33-.29-6.07,0-12.13.07-18.2-.05a5.25,5.25,0,0,0-4.72,2.44c-6.84,9.13-13.77,18.2-20.67,27.29a7.64,7.64,0,0,1-1.3,1.61,2.9,2.9,0,0,1-1.81.6c-.27,0-.6-.93-.66-1.47a29.39,29.39,0,0,1,0-3c0-9.73.06-19.46,0-29.19,0-2.08.65-2.75,2.72-2.74q40.43.07,80.85,0c.59,0,1.17.11,2.65.25-.57,2.28-.62,4.63-1.68,6.37q-25.37,41.84-51,83.54C510.78,568.51,510.07,569.78,509,571.66Z"/><path class="cls-2" d="M408.53,571.64c1.33.13,2.19.28,3,.28,6.86,0,13.73,0,20.59,0a5.08,5.08,0,0,0,4.7-2.39c7.34-10.25,14.8-20.42,22.27-30.57a11.73,11.73,0,0,1,2.4-1.91,10.38,10.38,0,0,1,.87,2.89c0,11.32-.09,22.64-.16,34,0,.68-.1,1.36-.17,2.28H372.73c.66-2.42.78-4.78,1.87-6.55q25.77-42.31,51.77-84.49c.55-.9,1-1.85,1.78-3.29-1.54-.15-2.56-.34-3.58-.35-6,0-11.94.06-17.91-.05a5.23,5.23,0,0,0-4.74,2.38c-6.48,8.67-13.05,17.27-19.59,25.89a14.28,14.28,0,0,1-1.65,2.1,20.8,20.8,0,0,1-2.54,1.64,10.51,10.51,0,0,1-.7-2.68c-.05-9.73,0-19.46,0-29.19v-4.32h85.43c.95,2.53.24,4.7-1.12,6.93q-19.92,32.46-39.75,65-6,9.91-12.07,19.83C409.46,569.77,409.11,570.53,408.53,571.64Z"/><path class="cls-2" d="M778.64,479.17c0,1.2,0,2.08,0,2.95-.37,10.12-.74,20.23-1.18,30.35a12.38,12.38,0,0,1-.91,2.91,10.59,10.59,0,0,1-2.46-1.79c-7.3-9.66-15-19.07-21.62-29.18-4-6.14-13.78-6.23-18.39-2.35-5.43,4.56-8.5,10.51-10.3,17.06-4,14.61-4.55,29.39-.18,44,2.84,9.5,8.06,17.31,18.08,20.6,11.8,3.88,25.32-.72,33.12-11.1a53.26,53.26,0,0,0,3.32-4.94c.9-1.53,1.55-2.9,3.81-1.66s.91,2.73.39,4c-8.16,19.41-24.3,29.46-45.62,28.78-15-.48-28-5.3-37.94-16.93-6.93-8.12-10.44-17.76-11.41-28.23-1.39-15.08,1.1-29.3,11-41.4,7.17-8.71,16.6-13.74,27.51-16,13.36-2.79,26.71-1.42,40,.6C770.11,477.49,774.27,478.37,778.64,479.17Z"/><path class="cls-2" d="M310.79,576.21a13.76,13.76,0,0,1,1.5-2.21,10,10,0,0,1,2.4-1.75c6.47-3,8.1-8,7.93-15-.51-22.11-.24-44.24-.13-66.37,0-2.81-.79-4.62-3.24-6a84.81,84.81,0,0,1-7.4-5,18,18,0,0,1-2.24-2.51c1.77-.12,2.72-.24,3.67-.25,12.43,0,24.85.08,37.28-.07,2.78,0,3.49.86,3.48,3.54-.09,27.19,0,54.37-.12,81.56,0,3.2.66,5.46,3.62,7.06a50.73,50.73,0,0,1,6.32,4.45,19.56,19.56,0,0,1,2.24,2.58Z"/><path class="cls-2" d="M319.2,448.06c6.32-6.51,11.89-12.3,17.55-18a2.24,2.24,0,0,1,2.16-.07c5.76,5.87,11.42,11.82,17.37,18-5.48,5.41-11.32,11.2-17.25,16.9a2.32,2.32,0,0,1-2.24.05C330.81,459.34,324.93,453.6,319.2,448.06Z"/><path class="cls-2" d="M474.19,638V608H484.9a8.28,8.28,0,0,1,4.42,1.22,9,9,0,0,1,3.14,3.28,9.08,9.08,0,0,1,1.16,4.52,9.05,9.05,0,0,1-4.37,7.83,8.2,8.2,0,0,1-4.35,1.21h-5.48V638Zm5.23-17.16h4.92a3.9,3.9,0,0,0,2-.55,4.28,4.28,0,0,0,1.46-1.5,4.32,4.32,0,0,0,0-4.22,4.12,4.12,0,0,0-1.46-1.5,3.91,3.91,0,0,0-2-.56h-4.92Z"/><path class="cls-2" d="M506.73,638V608H512v30Z"/><path class="cls-2" d="M526.31,638v-5.23l17.2-19.53h-17.2V608h24.24v5.23l-17.2,19.53h17.2V638Z"/><path class="cls-2" d="M564.26,638v-5.23l17.2-19.53h-17.2V608h24.25v5.23l-17.2,19.53h17.2V638Z"/><path class="cls-2" d="M602.22,638V608H621v5.23H607.45v6.08h10.77v5.23H607.45v8.22H621V638Z"/><path class="cls-2" d="M634.57,638V608h11.5a8.22,8.22,0,0,1,4.41,1.22,9.07,9.07,0,0,1,4.29,7.8,9.35,9.35,0,0,1-.74,3.74,9,9,0,0,1-5.09,4.83l7.18,12.4h-6l-6.94-11.93h-3.37V638Zm5.22-17.16h5.68a3.84,3.84,0,0,0,2-.55,4.34,4.34,0,0,0,1.48-1.5,4.26,4.26,0,0,0,0-4.22,4.17,4.17,0,0,0-1.48-1.5,3.85,3.85,0,0,0-2-.56h-5.68Z"/><path class="cls-2" d="M669.4,638V608h5.22v30Z"/><path class="cls-2" d="M698.34,608h6l10.91,30h-5.55l-1.93-5.31H694.93L693,638h-5.55Zm-1.5,19.45h9l-4.52-12.36Z"/><path class="cls-2" d="M755.31,638.55a8.77,8.77,0,0,1-4.71-1.29,9.54,9.54,0,0,1-3.29-3.39,9.09,9.09,0,0,1-1.21-4.55,10,10,0,0,1,.26-2.4,6.59,6.59,0,0,1,.88-2,15.93,15.93,0,0,1,1.69-2.14q1.07-1.17,2.7-2.79c-.59-.6-1.08-1.14-1.49-1.61a7.44,7.44,0,0,1-1-1.38,5.31,5.31,0,0,1-.53-1.38,7.2,7.2,0,0,1-.16-1.61,6.68,6.68,0,0,1,.94-3.53,7,7,0,0,1,2.51-2.45,6.66,6.66,0,0,1,3.38-.9,6.77,6.77,0,0,1,3.46.91,7,7,0,0,1,2.49,2.48,6.68,6.68,0,0,1,.93,3.49,7.57,7.57,0,0,1-.16,1.65,5.14,5.14,0,0,1-.54,1.39,8.39,8.39,0,0,1-1,1.37c-.41.47-.91,1-1.49,1.57l5.66,5.65,5.39-5.42v7.39l-1.73,1.74,5,5L769.62,638l-4.94-5c-1.11,1.1-2,2-2.83,2.72a14.9,14.9,0,0,1-2.16,1.68,6.43,6.43,0,0,1-2,.86A9.91,9.91,0,0,1,755.31,638.55Zm0-5.23a4.28,4.28,0,0,0,1.31-.18,3.53,3.53,0,0,0,1.11-.64,15.29,15.29,0,0,0,1.32-1.24l1.92-1.92-5.66-5.66c-.8.82-1.46,1.48-2,2a17.18,17.18,0,0,0-1.21,1.32,3.83,3.83,0,0,0-.61,1.08,4,4,0,0,0-.18,1.27,3.74,3.74,0,0,0,.57,2,4.19,4.19,0,0,0,1.48,1.42A3.87,3.87,0,0,0,755.31,633.32Zm0-16.28c.65-.61,1.13-1.08,1.45-1.39a3.47,3.47,0,0,0,.66-.83,1.89,1.89,0,0,0,.19-.93,2.07,2.07,0,0,0-.73-1.67,2.43,2.43,0,0,0-1.57-.6,2.31,2.31,0,0,0-2.25,2.27,2,2,0,0,0,.21,1,3.62,3.62,0,0,0,.69.85Z"/><path class="cls-2" d="M805,638V608H816a9.34,9.34,0,0,1,4.29,1,7.48,7.48,0,0,1,3,2.78,7.93,7.93,0,0,1,1.13,4.27,8.09,8.09,0,0,1-.32,2.21,6.34,6.34,0,0,1-1,2,3.92,3.92,0,0,1-1.71,1.32,4.66,4.66,0,0,1,2.27,1.24,6.68,6.68,0,0,1,1.37,2.11,10.93,10.93,0,0,1,.68,2.47,16.35,16.35,0,0,1,.18,2.32,7.79,7.79,0,0,1-1.18,4.24,8.64,8.64,0,0,1-3.16,3,8.89,8.89,0,0,1-4.38,1.09Zm5.23-18.38h5.1a4,4,0,0,0,2.71-1,3.31,3.31,0,0,0,1.12-2.62,3.14,3.14,0,0,0-1.12-2.62,4.27,4.27,0,0,0-2.71-.89h-5.1Zm0,13.9h6.38a4.36,4.36,0,0,0,2.32-.62,4.67,4.67,0,0,0,1.65-1.71,5,5,0,0,0,.62-2.49,4.51,4.51,0,0,0-.62-2.27,5.16,5.16,0,0,0-1.65-1.73,4.22,4.22,0,0,0-2.32-.67h-6.38Z"/><path class="cls-2" d="M846.93,608h6l10.9,30h-5.54l-1.93-5.31H843.53L841.6,638h-5.55Zm-1.5,19.45h9l-4.52-12.36Z"/><path class="cls-2" d="M876.19,638V608H887.7a8.27,8.27,0,0,1,4.41,1.22,9.17,9.17,0,0,1,3.13,3.27,9,9,0,0,1,1.15,4.53,9.18,9.18,0,0,1-.74,3.74,8.8,8.8,0,0,1-2,2.94,9,9,0,0,1-3,1.89l7.17,12.4h-6l-6.94-11.93h-3.36V638Zm5.23-17.16h5.68a3.84,3.84,0,0,0,2-.55,4.34,4.34,0,0,0,1.48-1.5,4.26,4.26,0,0,0,0-4.22,4.17,4.17,0,0,0-1.48-1.5,3.85,3.85,0,0,0-2-.56h-5.68Z"/></svg>