<svg id="Layer_1" data-name="Layer 1" xmlns="http://www.w3.org/2000/svg" viewBox="0 0 1080 1080"><defs><style>.cls-1{fill:#fbfbe7;}</style></defs><rect class="cls-1" x="3.3" y="-1.39" width="1073.4" height="1079.52"/><path d="M190.58,468.27l-30.18-6.61,2.37-10.78a8.5,8.5,0,0,1,2.2-4.18,9.25,9.25,0,0,1,4-2.44,9.39,9.39,0,0,1,4.8-.16,9.25,9.25,0,0,1,4.34,2.2,9.4,9.4,0,0,1,2.58,3.92,8.51,8.51,0,0,1,.26,4.64l-1.21,5.52,12,2.63Zm-16.11-9,1.08-5a3.9,3.9,0,0,0-.11-2.17,4.24,4.24,0,0,0-3.17-2.82,4.26,4.26,0,0,0-4.09,1.23,3.93,3.93,0,0,0-1,1.92l-1.09,5Z"/><path d="M198.36,436.24l-29.63-8.75,1.53-5.17,29.63,8.75Z"/><path d="M204.09,417.48l-5-1.94-12.41-23.76-6.37,16.53-5-1.93,9-23.31,5,1.94,12.41,23.76L208,392.23l5,1.94Z"/><path d="M218.49,382l-4.8-2.44-9.87-24.93-8.06,15.78L191,368l11.35-22.25,4.8,2.44L217,373.1l8-15.78,4.8,2.44Z"/><path d="M236.63,348.18l-26-16.61L221,315.23l4.54,2.9L218,329.92l5.29,3.37,6-9.35,4.54,2.89-6,9.36,7.14,4.56,7.52-11.8,4.54,2.9Z"/><path d="M254.67,321,230.26,302l7.25-9.37a8.55,8.55,0,0,1,3.78-2.82,9.23,9.23,0,0,1,4.63-.49,9.34,9.34,0,0,1,4.42,1.92,9.48,9.48,0,0,1,2.58,3,9.16,9.16,0,0,1,.72,7.19l14.63,2-3.8,4.9-14.09-1.87-2.12,2.74L258,316.7ZM244,305.88l3.58-4.63a3.89,3.89,0,0,0,.83-2,4.29,4.29,0,0,0-.29-2.15,4.4,4.4,0,0,0-3.43-2.66,4.39,4.39,0,0,0-2.16.25A3.91,3.91,0,0,0,240.8,296l-3.59,4.62Z"/><path d="M276.93,293.56l-23-20.67,3.6-4,23,20.67Z"/><path d="M275.89,250.08l4.5-4.26,29.4,14.71-4.15,3.92-5.21-2.6-9.61,9.1,2.32,5.34L289,280.22Zm12.66,15.61,6.74-6.39-12.13-6Z"/><path d="M341.79,236.44a9.07,9.07,0,0,1-4.75,1.65,9.82,9.82,0,0,1-4.77-1,9.3,9.3,0,0,1-3.67-3.17,10.35,10.35,0,0,1-1.18-2.19,7.17,7.17,0,0,1-.42-2.21,17.59,17.59,0,0,1,.2-2.81c.16-1.08.38-2.39.67-3.94-.84-.18-1.58-.34-2.2-.51a7.39,7.39,0,0,1-1.63-.61,5.58,5.58,0,0,1-1.25-.87,7.84,7.84,0,0,1-1.07-1.27,6.83,6.83,0,0,1-1.24-3.55,7.21,7.21,0,0,1,.7-3.54,7,7,0,0,1,2.36-2.73,6.85,6.85,0,0,1,3.47-1.23,7,7,0,0,1,3.55.66,6.72,6.72,0,0,1,2.82,2.43,8.4,8.4,0,0,1,.83,1.49,5.13,5.13,0,0,1,.35,1.5,9.41,9.41,0,0,1,0,1.74c-.08.63-.2,1.37-.36,2.19l8.1,1.53,1.44-7.75,4.29,6.29-.47,2.48,7.14,1.33-1,5.29-7.08-1.34c-.3,1.58-.57,2.9-.82,4a16.32,16.32,0,0,1-.86,2.68,6.77,6.77,0,0,1-1.2,1.89A10.51,10.51,0,0,1,341.79,236.44ZM329.3,218.15c.19-.9.33-1.57.42-2a3.7,3.7,0,0,0,.09-1.08,2,2,0,0,0-.39-.9,2.09,2.09,0,0,0-1.59-1,2.46,2.46,0,0,0-1.68.4,2.36,2.36,0,0,0-.59,3.24,2.18,2.18,0,0,0,.73.7,3.85,3.85,0,0,0,1.09.32ZM338.76,232a4.56,4.56,0,0,0,1-.92,3.66,3.66,0,0,0,.57-1.19,17.82,17.82,0,0,0,.4-1.81c.14-.73.31-1.65.52-2.76l-8.1-1.52c-.21,1.15-.38,2.1-.53,2.84a15.57,15.57,0,0,0-.26,1.83,3.45,3.45,0,0,0,.11,1.27,4.22,4.22,0,0,0,2.25,2.6,4.28,4.28,0,0,0,2.08.35A4.16,4.16,0,0,0,338.76,232Z"/><path d="M384.2,210l-13.37-27.85L381,177.29a9.77,9.77,0,0,1,4.43-1,7.68,7.68,0,0,1,4.06,1.23,8.12,8.12,0,0,1,3,3.47,7.89,7.89,0,0,1,.69,2.19,6.58,6.58,0,0,1,0,2.3,4.2,4.2,0,0,1-1,2,4.66,4.66,0,0,1,2.66.14,6.7,6.7,0,0,1,2.22,1.34,11.12,11.12,0,0,1,1.72,2,15.84,15.84,0,0,1,1.21,2.08,8,8,0,0,1,.8,4.46,8.83,8.83,0,0,1-1.62,4.15,9.08,9.08,0,0,1-3.58,3Zm-3.34-19.4,4.73-2.27a4.08,4.08,0,0,0,2.08-2.13,3.41,3.41,0,0,0-.12-2.92,3.24,3.24,0,0,0-2.22-1.94,4.34,4.34,0,0,0-2.91.39L377.69,184Zm6.2,12.91,5.93-2.85a4.51,4.51,0,0,0,1.87-1.6,4.7,4.7,0,0,0,.76-2.33,5.06,5.06,0,0,0-.53-2.59,4.51,4.51,0,0,0-1.59-1.83,5.21,5.21,0,0,0-2.3-.87,4.3,4.3,0,0,0-2.45.41l-5.92,2.85Z"/><path d="M412.4,163.9l5.82-2.13L439.4,186.9l-5.37,2-3.75-4.45L417.86,189l0,5.82-5.37,2Zm5.45,19.34,8.72-3.19-8.76-10.35Z"/><path d="M450.91,183.52l-7.66-29.93,11.47-2.94a8.59,8.59,0,0,1,4.72.09,9.35,9.35,0,0,1,6.27,6.69,9.54,9.54,0,0,1,.22,3.92,9.12,9.12,0,0,1-3.85,6.12L472.41,178l-6,1.54-10-10.13-3.36.86,3.05,11.9Zm.83-18.46,5.67-1.45a4,4,0,0,0,1.88-1.07,4.52,4.52,0,0,0,1.1-1.88,4.47,4.47,0,0,0-1.08-4.21,4.45,4.45,0,0,0-1.86-1.12,4,4,0,0,0-2.18,0l-5.66,1.45Z"/><path d="M636.05,178.61l7.7-29.92,10.69,2.76a8.48,8.48,0,0,1,4.1,2.35,9.21,9.21,0,0,1,2.29,4.07,9.45,9.45,0,0,1,0,4.81,9.31,9.31,0,0,1-2.36,4.26,9.5,9.5,0,0,1-4,2.43,8.54,8.54,0,0,1-4.65.09l-5.47-1.41L641.27,180Zm9.62-15.77,4.92,1.26a4,4,0,0,0,2.17,0,4.4,4.4,0,0,0,2.93-5.33,4.25,4.25,0,0,0-1.08-1.87,3.9,3.9,0,0,0-1.88-1.08l-4.92-1.27Z"/><path d="M667.81,187.55l9.81-29.29,5.11,1.71-9.82,29.29Z"/><path d="M686.25,193.91l2.11-4.95,24.2-11.55-16.3-7,2.12-4.95,23,9.81-2.11,4.95L695,191.81l16.3,7-2.12,4.95Z"/><path d="M721.24,209.61l2.62-4.71,25.27-9-15.48-8.61,2.61-4.71,21.83,12.15-2.62,4.7-25.26,9,15.48,8.62-2.62,4.7Z"/><path d="M754.38,228.94l17.53-25.43,16,11-3.06,4.44L773.29,211l-3.56,5.16,9.14,6.29-3,4.44-9.14-6.3-4.81,7,11.52,7.94-3,4.44Z"/><path d="M780.91,247.92l19.78-23.73,9.1,7.59a8.47,8.47,0,0,1,2.69,3.87,9.34,9.34,0,0,1-1.75,9,9.72,9.72,0,0,1-3.05,2.47,9.06,9.06,0,0,1-3.57,1,9.21,9.21,0,0,1-3.64-.5L798,262.13l-4.77-4,2.38-14-2.66-2.21-7.87,9.44Zm15.45-10.13,4.5,3.74a3.92,3.92,0,0,0,2,.91,4.31,4.31,0,0,0,2.16-.22,4.16,4.16,0,0,0,1.83-1.29,4.24,4.24,0,0,0,.95-2.05,4.39,4.39,0,0,0-.18-2.16,3.93,3.93,0,0,0-1.24-1.78l-4.49-3.74Z"/><path d="M807.55,271.17,829,249l3.87,3.74-21.47,22.22Z"/><path d="M851,271.69l4.1,4.65-15.75,28.85-3.78-4.29,2.79-5.11-8.75-9.93L824.23,288l-3.78-4.28Zm-16,12.09,6.14,7,6.47-11.91Z"/><path d="M862.31,338a9,9,0,0,1-1.48-4.81,9.82,9.82,0,0,1,1.15-4.73,9.26,9.26,0,0,1,3.3-3.56,10.64,10.64,0,0,1,2.23-1.1,6.73,6.73,0,0,1,2.23-.33,16.52,16.52,0,0,1,2.8.29c1.07.2,2.37.47,3.92.81.19-.84.39-1.56.57-2.18a8.3,8.3,0,0,1,.67-1.61,5.6,5.6,0,0,1,.92-1.21,7.46,7.46,0,0,1,4.9-2.14,7,7,0,0,1,3.51.83,6.93,6.93,0,0,1,2.65,2.45,7,7,0,0,1,1.1,3.52,7.09,7.09,0,0,1-.78,3.52,6.83,6.83,0,0,1-2.53,2.73,7.77,7.77,0,0,1-1.52.77,5.55,5.55,0,0,1-1.51.3,9.73,9.73,0,0,1-1.74-.1c-.63-.1-1.36-.25-2.18-.44l-1.81,8,7.69,1.72L880,344.85l-2.47-.56-1.58,7.09-5.25-1.2,1.59-7c-1.56-.35-2.87-.67-3.92-1a15.91,15.91,0,0,1-2.65-.95,6.83,6.83,0,0,1-1.84-1.27A10.41,10.41,0,0,1,862.31,338Zm4.55-2.88a4.23,4.23,0,0,0,.88,1,3.6,3.6,0,0,0,1.17.62c.47.15,1.07.31,1.8.47l2.73.61,1.81-8-2.82-.63a16,16,0,0,0-1.81-.33,3.55,3.55,0,0,0-1.28.07,4.13,4.13,0,0,0-1.2.53,3.91,3.91,0,0,0-1.48,1.63,4.24,4.24,0,0,0-.42,2.06A4,4,0,0,0,866.86,335.14ZM881,326.19l2,.49a3.24,3.24,0,0,0,1.08.12,2,2,0,0,0,.91-.35,2.11,2.11,0,0,0,1.06-1.55,2.57,2.57,0,0,0-.34-1.7,2.24,2.24,0,0,0-1.45-1,2.22,2.22,0,0,0-1.77.3,2,2,0,0,0-.72.7,3.55,3.55,0,0,0-.37,1.08C881.36,324.74,881.22,325.38,881,326.19Z"/><path d="M887.23,381.39,915.54,369l4.5,10.32a9.59,9.59,0,0,1,.85,4.45,7.84,7.84,0,0,1-1.37,4,8.06,8.06,0,0,1-3.58,2.82,7.93,7.93,0,0,1-2.21.61,6.55,6.55,0,0,1-2.3-.1,4.19,4.19,0,0,1-1.95-1.08,4.81,4.81,0,0,1-.23,2.66,6.67,6.67,0,0,1-1.43,2.16,10.73,10.73,0,0,1-2.05,1.66,16.89,16.89,0,0,1-2.12,1.12,7.93,7.93,0,0,1-4.49.64,8.89,8.89,0,0,1-4.09-1.76,9.26,9.26,0,0,1-2.84-3.69Zm6.38,3.08,2.63,6a4.54,4.54,0,0,0,1.54,1.93,4.82,4.82,0,0,0,2.3.85,5.14,5.14,0,0,0,2.6-.44,4.71,4.71,0,0,0,1.89-1.52,5.22,5.22,0,0,0,.95-2.28,4.27,4.27,0,0,0-.32-2.45l-2.63-6Zm13.12-5.73,2.1,4.81a4.13,4.13,0,0,0,2,2.16,3.42,3.42,0,0,0,2.93,0,3.26,3.26,0,0,0,2-2.14,4.42,4.42,0,0,0-.28-2.93l-2.1-4.81Z"/><path d="M932.28,411.2l1.92,5.9-25.88,20.26-1.77-5.43,4.58-3.59L907,415.75l-5.81-.19-1.78-5.43ZM912.75,416l2.88,8.83,10.66-8.38Z"/><path d="M911.27,448.93l30.18-6.58L944,453.92a8.44,8.44,0,0,1-.26,4.71,9.32,9.32,0,0,1-2.6,3.87,9.88,9.88,0,0,1-8.24,2.23,9.17,9.17,0,0,1-6-4.05L916,470.62l-1.32-6.06,10.48-9.6-.74-3.39-12,2.62Zm18.42,1.49,1.24,5.72a3.93,3.93,0,0,0,1,1.92,4.41,4.41,0,0,0,1.83,1.16,4.39,4.39,0,0,0,4.25-.93,4.35,4.35,0,0,0,1.18-1.81,4,4,0,0,0,.12-2.17l-1.25-5.71Z"/><path d="M914.92,607.81l30.17,6.62-2.36,10.77a8.46,8.46,0,0,1-2.2,4.18,9.16,9.16,0,0,1-4,2.44,9.42,9.42,0,0,1-4.81.17,9.31,9.31,0,0,1-4.34-2.21,9.48,9.48,0,0,1-2.57-3.92,8.51,8.51,0,0,1-.26-4.64l1.21-5.52-12-2.63Zm16.11,9-1.09,5a4.09,4.09,0,0,0,.11,2.17,4.37,4.37,0,0,0,1.19,1.81,4.5,4.5,0,0,0,4.25.93,4.37,4.37,0,0,0,1.83-1.14,4,4,0,0,0,1-1.93l1.08-5Z"/><path d="M907.14,639.84l29.62,8.75-1.52,5.17L905.61,645Z"/><path d="M901.41,658.6l5,1.94,12.42,23.76,6.36-16.53,5,1.93-9,23.31-5-1.93-12.41-23.77-6.37,16.54-5-1.94Z"/><path d="M887,694.07l4.8,2.45,9.87,24.92,8.05-15.78,4.8,2.45-11.35,22.25-4.8-2.45L888.51,703l-8,15.79-4.8-2.45Z"/><path d="M868.86,727.9l26,16.61-10.42,16.34L880,758l7.52-11.79-5.28-3.37-6,9.36-4.53-2.9,6-9.36-7.14-4.55L863,747.13l-4.54-2.89Z"/><path d="M850.83,755.12l24.41,18.93L868,783.41a8.32,8.32,0,0,1-3.77,2.82,9.29,9.29,0,0,1-9.05-1.43,9.37,9.37,0,0,1-2.58-3,9,9,0,0,1-1.1-3.53,9.27,9.27,0,0,1,.37-3.66l-14.62-2,3.79-4.9,14.1,1.88,2.12-2.74-9.71-7.53ZM861.5,770.2l-3.58,4.63a4,4,0,0,0-.84,2,4.54,4.54,0,0,0,.29,2.15,4.17,4.17,0,0,0,1.36,1.77,4.23,4.23,0,0,0,2.08.89,4.47,4.47,0,0,0,2.15-.26,4,4,0,0,0,1.74-1.31l3.58-4.62Z"/><path d="M828.57,782.52l23,20.67-3.6,4-23-20.67Z"/><path d="M829.61,826l-4.51,4.27-29.39-14.71,4.15-3.93,5.2,2.61,9.62-9.11-2.32-5.34,4.15-3.93ZM817,810.39l-6.74,6.39,12.13,6Z"/><path d="M763.7,839.64a9.11,9.11,0,0,1,4.76-1.65,9.84,9.84,0,0,1,4.77,1,9.37,9.37,0,0,1,3.67,3.17,10.83,10.83,0,0,1,1.18,2.19,6.89,6.89,0,0,1,.41,2.22,16.28,16.28,0,0,1-.19,2.8c-.16,1.08-.38,2.39-.68,3.95.85.17,1.58.34,2.2.5a8,8,0,0,1,1.64.61,5.52,5.52,0,0,1,1.24.87,7.39,7.39,0,0,1,1.08,1.27A6.92,6.92,0,0,1,785,860.1a7.11,7.11,0,0,1-.71,3.54,6.81,6.81,0,0,1-2.35,2.73,7,7,0,0,1-3.48,1.24,7.18,7.18,0,0,1-3.55-.67,6.89,6.89,0,0,1-2.82-2.42,8.72,8.72,0,0,1-.82-1.5,5.05,5.05,0,0,1-.35-1.5,8.61,8.61,0,0,1,0-1.74q.1-.94.36-2.19l-8.1-1.52-1.44,7.74-4.3-6.29L758,855l-7.13-1.33,1-5.28,7.09,1.33c.29-1.57.57-2.89.82-4a15.7,15.7,0,0,1,.86-2.68,6.77,6.77,0,0,1,1.19-1.88A10.14,10.14,0,0,1,763.7,839.64Zm3,4.44a4.58,4.58,0,0,0-1,.92,3.76,3.76,0,0,0-.57,1.19c-.14.48-.27,1.08-.41,1.81s-.3,1.65-.51,2.76l8.1,1.53c.21-1.16.38-2.11.53-2.85a15.57,15.57,0,0,0,.26-1.83,3.7,3.7,0,0,0-.11-1.27,4,4,0,0,0-.58-1.18,3.88,3.88,0,0,0-1.68-1.42,4.23,4.23,0,0,0-2.07-.34A4,4,0,0,0,766.74,844.08Zm9.45,13.85c-.18.9-.33,1.58-.41,2a3.13,3.13,0,0,0-.09,1.08,2,2,0,0,0,.38.9,2.12,2.12,0,0,0,1.6,1,2.42,2.42,0,0,0,1.67-.4,2.24,2.24,0,0,0,1-1.47,2.28,2.28,0,0,0-.36-1.76,2.15,2.15,0,0,0-.74-.71,3.65,3.65,0,0,0-1.09-.32C777.65,858.2,777,858.09,776.19,857.93Z"/><path d="M721.3,866.07l13.37,27.85-10.14,4.87a9.54,9.54,0,0,1-4.43,1,7.68,7.68,0,0,1-4.06-1.23,8.09,8.09,0,0,1-2.95-3.46,8,8,0,0,1-.69-2.2,6.52,6.52,0,0,1,0-2.29,4.07,4.07,0,0,1,1-2,4.88,4.88,0,0,1-2.67-.14,6.75,6.75,0,0,1-2.21-1.35,11.23,11.23,0,0,1-1.73-2,17.61,17.61,0,0,1-1.2-2.07,8,8,0,0,1-.8-4.47,8.77,8.77,0,0,1,1.62-4.15,9.08,9.08,0,0,1,3.58-3Zm-2.86,6.49-5.93,2.85a4.53,4.53,0,0,0-1.87,1.61,4.78,4.78,0,0,0-.77,2.32,5.14,5.14,0,0,0,.53,2.59,4.67,4.67,0,0,0,1.59,1.83,5.13,5.13,0,0,0,2.31.87,4.26,4.26,0,0,0,2.44-.41l5.93-2.85Zm6.2,12.91-4.74,2.27a4.09,4.09,0,0,0-2.07,2.13,3.37,3.37,0,0,0,.12,2.92,3.24,3.24,0,0,0,2.21,1.94,4.36,4.36,0,0,0,2.92-.38l4.73-2.28Z"/><path d="M693.1,912.18l-5.82,2.14L666.1,889.18l5.36-2,3.75,4.46,12.43-4.56,0-5.82,5.37-2Zm-5.45-19.34-8.72,3.2,8.76,10.35Z"/><path d="M654.59,892.56l7.66,29.93-11.48,2.94a8.46,8.46,0,0,1-4.71-.09,9.31,9.31,0,0,1-6.27-6.69,9.54,9.54,0,0,1-.22-3.92,9.12,9.12,0,0,1,1.3-3.46,9.23,9.23,0,0,1,2.55-2.66l-10.34-10.54,6-1.54,10,10.14,3.36-.87-3-11.9ZM653.76,911l-5.67,1.45a3.9,3.9,0,0,0-1.88,1.08,4.33,4.33,0,0,0-1.1,1.87,4.39,4.39,0,0,0,1.08,4.21,4.35,4.35,0,0,0,1.86,1.12,3.9,3.9,0,0,0,2.17,0l5.67-1.45Z"/><path d="M469.45,897.47l-7.71,29.92-10.68-2.75a8.49,8.49,0,0,1-4.1-2.36,9.21,9.21,0,0,1-2.29-4.07,9.34,9.34,0,0,1,0-4.81,9.22,9.22,0,0,1,2.36-4.26,9.5,9.5,0,0,1,4-2.43,8.54,8.54,0,0,1,4.65-.09l5.47,1.41,3.06-11.9Zm-9.63,15.78L454.91,912a4,4,0,0,0-2.17,0,4.36,4.36,0,0,0-1.85,1.12,4.16,4.16,0,0,0-1.08,2,4.1,4.1,0,0,0,0,2.25,4.27,4.27,0,0,0,1.07,1.87,4,4,0,0,0,1.89,1.08l4.91,1.27Z"/><path d="M437.69,888.53l-9.82,29.29-5.1-1.71,9.81-29.29Z"/><path d="M419.24,882.17l-2.11,5-24.19,11.55,16.29,7-2.11,5-23-9.8,2.11-4.95,24.2-11.56-16.3-6.95,2.11-5Z"/><path d="M384.25,866.47l-2.62,4.71-25.26,9,15.48,8.62-2.61,4.7-21.83-12.14,2.62-4.71,25.26-9L359.81,859l2.62-4.71Z"/><path d="M351.11,847.14l-17.52,25.44-16-11,3.06-4.43,11.52,7.94,3.55-5.16-9.14-6.3,3.06-4.44,9.14,6.31,4.81-7-11.52-7.94,3.05-4.44Z"/><path d="M324.58,828.16l-19.77,23.73-9.1-7.58a8.47,8.47,0,0,1-2.69-3.88,9.34,9.34,0,0,1,1.75-9,9.64,9.64,0,0,1,3.05-2.47,9.23,9.23,0,0,1,3.57-1,9,9,0,0,1,3.64.51l2.5-14.55,4.76,4-2.37,14,2.66,2.21,7.87-9.44Zm-15.45,10.13-4.49-3.74a4,4,0,0,0-2-.9,4.41,4.41,0,0,0-2.16.21,4.39,4.39,0,0,0-2.79,3.34,4.39,4.39,0,0,0,.18,2.16,4,4,0,0,0,1.25,1.78l4.49,3.75Z"/><path d="M298,804.91l-21.47,22.21-3.87-3.74,21.47-22.21Z"/><path d="M254.46,804.4l-4.1-4.65,15.74-28.86,3.78,4.29-2.79,5.11,8.76,9.93,5.41-2.13,3.78,4.29Zm16-12.09-6.14-7-6.48,11.91Z"/><path d="M243.19,738.06a9,9,0,0,1,1.47,4.81,9.76,9.76,0,0,1-1.14,4.74,9.31,9.31,0,0,1-3.3,3.55,10.64,10.64,0,0,1-2.23,1.1,7.08,7.08,0,0,1-2.23.34,16.54,16.54,0,0,1-2.8-.3c-1.07-.19-2.38-.46-3.92-.81-.2.84-.39,1.57-.58,2.18a8.3,8.3,0,0,1-.66,1.61,5.92,5.92,0,0,1-.92,1.22,7.64,7.64,0,0,1-1.31,1,6.94,6.94,0,0,1-3.59,1.12,7.24,7.24,0,0,1-3.51-.83,7.15,7.15,0,0,1-3.76-6,7.13,7.13,0,0,1,.79-3.53,7,7,0,0,1,2.53-2.73,8.06,8.06,0,0,1,1.52-.77,5.47,5.47,0,0,1,1.51-.3,9,9,0,0,1,1.74.11c.63.09,1.36.24,2.18.43l1.81-8-7.69-1.72,6.44-4.07,2.46.56,1.59-7.08,5.24,1.2-1.59,7q2.35.52,3.93,1a15.85,15.85,0,0,1,2.65,1,7,7,0,0,1,1.84,1.26A10.41,10.41,0,0,1,243.19,738.06ZM224.46,749.9l-2-.5a3.26,3.26,0,0,0-1.08-.12,2,2,0,0,0-.91.35,2.11,2.11,0,0,0-1.06,1.55,2.5,2.5,0,0,0,.34,1.7,2.36,2.36,0,0,0,3.21.71,2.16,2.16,0,0,0,.73-.71,3.85,3.85,0,0,0,.37-1.08C224.14,751.34,224.28,750.71,224.46,749.9Zm14.18-9a4.45,4.45,0,0,0-.88-1,3.6,3.6,0,0,0-1.17-.62c-.47-.15-1.07-.31-1.8-.47s-1.64-.36-2.73-.6l-1.82,8,2.83.63a15.61,15.61,0,0,0,1.81.33,3.8,3.8,0,0,0,1.28-.06,3.92,3.92,0,0,0,1.2-.54,3.86,3.86,0,0,0,1.48-1.63,4.33,4.33,0,0,0,.42-2.06A4.12,4.12,0,0,0,238.64,740.94Z"/><path d="M218.27,694.7,190,707.06l-4.5-10.31a9.67,9.67,0,0,1-.86-4.46,7.82,7.82,0,0,1,1.38-4,8.08,8.08,0,0,1,3.57-2.82,8.46,8.46,0,0,1,2.22-.61,6.34,6.34,0,0,1,2.3.11A4,4,0,0,1,196,686a4.78,4.78,0,0,1,.24-2.65,6.71,6.71,0,0,1,1.43-2.17,11.07,11.07,0,0,1,2-1.65,16.94,16.94,0,0,1,2.11-1.13,8,8,0,0,1,4.49-.64,8.84,8.84,0,0,1,4.1,1.77,9.13,9.13,0,0,1,2.83,3.68Zm-19.51,2.64-2.1-4.81a4.05,4.05,0,0,0-2-2.15,3.4,3.4,0,0,0-2.94,0,3.24,3.24,0,0,0-2,2.14,4.35,4.35,0,0,0,.28,2.93l2.1,4.81Zm13.13-5.73-2.63-6a4.62,4.62,0,0,0-1.54-1.93,4.86,4.86,0,0,0-2.3-.85,5.1,5.1,0,0,0-2.6.44,4.53,4.53,0,0,0-1.89,1.53,5.27,5.27,0,0,0-1,2.27,4.34,4.34,0,0,0,.33,2.45l2.63,6Z"/><path d="M173.22,664.88,171.3,659l25.88-20.27,1.77,5.44-4.59,3.58,4.11,12.59,5.82.19,1.78,5.43Zm19.53-4.75-2.89-8.83-10.65,8.38Z"/><path d="M194.23,627.15l-30.18,6.59-2.53-11.58a8.44,8.44,0,0,1,.26-4.71,9.28,9.28,0,0,1,6.91-6,9.45,9.45,0,0,1,3.92-.08,9.12,9.12,0,0,1,6,4.06l10.91-9.95,1.32,6.06-10.49,9.61.74,3.38,12-2.62Zm-18.42-1.49-1.24-5.72a4.06,4.06,0,0,0-1-1.92,4.38,4.38,0,0,0-1.84-1.16,4.38,4.38,0,0,0-4.24.93,4.37,4.37,0,0,0-1.19,1.81,4,4,0,0,0-.11,2.18l1.24,5.71Z"/><rect x="541.46" y="906.4" width="23.48" height="23.48" transform="translate(811.25 -122.25) rotate(45)"/><rect x="541.46" y="141.66" width="23.48" height="23.48" transform="translate(270.5 -346.24) rotate(45)"/><rect x="158.14" y="521.72" width="23.48" height="23.48" transform="translate(426.97 36.12) rotate(45)"/><rect x="922.87" y="522.49" width="23.48" height="23.48" transform="translate(651.5 -504.4) rotate(45)"/><path d="M307.31,584.35H252a16.55,16.55,0,0,1,2.28-2.65c2.9-2,6-3.79,8.8-5.89a4.53,4.53,0,0,0,1.75-3.1q.15-45.08,0-90.16a4.83,4.83,0,0,0-1.85-3.33c-2.84-2.09-5.93-3.83-8.86-5.8a7,7,0,0,1-1.38-1.81,6,6,0,0,1,2-.83c21.31,0,42.62-.14,63.92.09a54.19,54.19,0,0,1,23.35,5.37c13.63,6.62,18.94,19.67,17.37,33.66-2.1,18.65-15.18,27.45-29.75,30.75-8.11,1.83-16.33,1.64-24.56,1.62-3.53,0-7.07,0-10.61,0-1.45,0-2.08.49-2.07,2,0,9.6,0,19.21.09,28.82a3.7,3.7,0,0,0,1.74,2.57c3.69,2.13,7.53,4,11.26,6.08a11.82,11.82,0,0,1,2.2,2Zm-14.85-77.89c0,9.76,0,19.53,0,29.29,0,1.72.38,2.54,2.33,2.49,4.6-.12,9.21.1,13.81-.1,7.79-.33,14.14-3.67,17.63-10.71,6.5-13.08,6.77-26.63.57-39.83-4-8.59-11.39-12.87-21.06-12.79-3.45,0-6.91.13-10.36,0-2.26-.12-3,.61-2.94,2.89C292.52,487.26,292.45,496.86,292.46,506.46Z"/><path d="M673,584.37c-1.46.08-2.25.16-3,.16-8.31,0-16.62-.08-24.93.06-2.13,0-3.07-.73-3.64-2.63-.75-2.51-1.7-5-2.59-7.43-.27-.74-.64-1.45-.94-2.13-2.73,2.78-5.1,5.63-7.91,7.94-7.24,6-15.77,7.16-24.67,5.4a33.08,33.08,0,0,1-10.47-4c-10.54-6.38-12.94-26-.49-35,6.47-4.63,13.83-6.67,21.32-8.57,6.52-1.65,13-3.35,19.51-5.15.78-.21,1.93-1.15,1.92-1.74-.09-6.3.14-12.68-.75-18.89-1-7.22-10-11-16.45-7.34a6.76,6.76,0,0,0-1.54,1.57c-7.11,8.07-14.2,16.16-21.35,24.21a10.36,10.36,0,0,1-2.34,1.52,13.62,13.62,0,0,1-.66-2.68c-.33-7.71-.55-15.43-.92-23.13-.09-1.81.39-2.62,2.28-2.93,14.23-2.32,28.49-4.13,42.94-2.8a33.22,33.22,0,0,1,15.1,4.89,20.3,20.3,0,0,1,9.86,18q.13,24.87,0,49.76a4.45,4.45,0,0,0,2.17,4.26,69.7,69.7,0,0,1,5.7,4.3A15.93,15.93,0,0,1,673,584.37Zm-35.83-48.59c-4,1.43-7.5,2.59-10.93,3.89-11.7,4.45-16.83,14.58-13.55,26.64,2.21,8.14,10.79,12,17.83,7.69,4.07-2.47,7.14-5.53,6.77-11.19-.48-7.43-.12-14.92-.12-22.38Z"/><path d="M852.46,584.36c-1.46.08-2.25.17-3,.17-8.39,0-16.79,0-25.18,0-1.73,0-2.68-.43-3.2-2.18-.79-2.67-1.83-5.26-2.79-7.88-.27-.73-.6-1.44-1-2.47-1.27,1.57-2.25,2.86-3.32,4.08-8,9.09-18,11.75-29.63,9.59-6.6-1.23-12.32-4-15.69-10-5.39-9.59-5.07-23.5,8.49-31.16,5.73-3.24,12-4.82,18.28-6.42q9.76-2.48,19.5-5.18c.69-.19,1.71-1.09,1.7-1.65-.12-6.3.08-12.67-.77-18.89-1-7.18-10.09-11-16.42-7.37a6,6,0,0,0-1.38,1.38Q787.15,518.75,776.3,531a9.61,9.61,0,0,1-2.15,1.37,10.35,10.35,0,0,1-.69-2.42c-.34-7.87-.58-15.75-.94-23.63-.07-1.59.35-2.36,2-2.63,14.46-2.42,29-4.24,43.67-2.83a33,33,0,0,1,14.19,4.58,20.3,20.3,0,0,1,10.31,18.18c.1,16.59.06,33.18,0,49.77a4.48,4.48,0,0,0,2.14,4.28,69.77,69.77,0,0,1,5.72,4.28A17.16,17.16,0,0,1,852.46,584.36Zm-35.82-48.59c-4,1.42-7.47,2.59-10.91,3.89-11.76,4.45-17,14.87-13.53,26.9,2.29,8,10.9,11.66,17.81,7.43,4.08-2.5,7.14-5.58,6.75-11.23-.49-7.1-.12-14.27-.12-21.41Z"/><path d="M530.76,580.55c1.35.1,2.14.21,2.93.21,5.51,0,11-.07,16.54,0a4.64,4.64,0,0,0,4.28-2.21c5.88-8.21,11.85-16.35,17.78-24.51a3.93,3.93,0,0,1,.58-.79c.6-.49,1.24-.92,1.87-1.37a7.12,7.12,0,0,1,.72,2.14c0,4.18,0,8.37,0,12.55,0,5.18-.06,10.35-.1,15.52,0,.72-.1,1.44-.16,2.27H501.3c.52-2,.59-3.93,1.48-5.39q21.36-35.1,42.91-70.09c.45-.74.81-1.53,1.41-2.68-1.21-.11-2-.24-2.75-.24-5,0-10,.05-15.06-.05a4.36,4.36,0,0,0-3.9,2c-5.66,7.55-11.39,15-17.09,22.57a6.47,6.47,0,0,1-1.08,1.34,2.45,2.45,0,0,1-1.5.49c-.22,0-.49-.77-.54-1.21a22.4,22.4,0,0,1,0-2.46c0-8.05,0-16.09,0-24.14,0-1.72.54-2.27,2.26-2.27q33.43.06,66.87,0c.48,0,1,.09,2.19.21-.47,1.89-.52,3.83-1.39,5.27q-21,34.6-42.15,69.09C532.26,577.93,531.67,579,530.76,580.55Z"/><path d="M447.69,580.53c1.1.1,1.8.22,2.51.23,5.68,0,11.36,0,17,0a4.22,4.22,0,0,0,3.89-2c6.07-8.48,12.24-16.88,18.42-25.28a9.42,9.42,0,0,1,2-1.58,8.82,8.82,0,0,1,.72,2.39c0,9.36-.07,18.72-.14,28.08,0,.57-.08,1.13-.13,1.9H418.08c.54-2,.64-4,1.54-5.43q21.31-35,42.82-69.88c.45-.74.83-1.53,1.47-2.71-1.27-.13-2.12-.29-3-.29-4.94,0-9.88.05-14.81-.05a4.35,4.35,0,0,0-3.92,2c-5.36,7.18-10.79,14.28-16.2,21.41a11.81,11.81,0,0,1-1.37,1.74,16.79,16.79,0,0,1-2.1,1.36,9.15,9.15,0,0,1-.58-2.21c0-8.05,0-16.1,0-24.15V502.5H492.6c.78,2.1.2,3.9-.93,5.74Q475.2,535.09,458.8,562q-5,8.19-10,16.4C448.45,579,448.16,579.61,447.69,580.53Z"/><path d="M753.79,504c0,1,0,1.72,0,2.45-.31,8.36-.62,16.73-1,25.1a9.54,9.54,0,0,1-.76,2.4,8.56,8.56,0,0,1-2-1.48c-6-8-12.4-15.77-17.88-24.13-3.33-5.08-11.4-5.15-15.21-1.95-4.49,3.78-7,8.7-8.51,14.11-3.32,12.09-3.77,24.32-.16,36.43,2.35,7.86,6.67,14.31,15,17,9.76,3.21,20.94-.59,27.39-9.18a42.87,42.87,0,0,0,2.74-4.09c.75-1.26,1.29-2.4,3.16-1.37s.75,2.26.32,3.3c-6.75,16.05-20.1,24.36-37.73,23.8-12.42-.4-23.16-4.39-31.38-14a40.91,40.91,0,0,1-9.44-23.35c-1.15-12.47.91-24.23,9.14-34.24,5.93-7.2,13.73-11.36,22.75-13.25,11.05-2.31,22.09-1.17,33.1.5C746.74,502.66,750.18,503.38,753.79,504Z"/><path d="M366.85,584.3a11.22,11.22,0,0,1,1.24-1.82,8,8,0,0,1,2-1.45c5.34-2.51,6.69-6.58,6.55-12.42-.42-18.29-.19-36.59-.1-54.89,0-2.33-.65-3.83-2.69-5a71.17,71.17,0,0,1-6.12-4.12,15,15,0,0,1-1.85-2.08c1.47-.1,2.25-.2,3-.2,10.28,0,20.55.06,30.83-.06,2.3,0,2.88.71,2.88,2.93-.07,22.48,0,45-.1,67.45,0,2.65.54,4.52,3,5.84a42.52,42.52,0,0,1,5.23,3.68,16.68,16.68,0,0,1,1.86,2.13Z"/><path d="M373.81,478.32c5.22-5.39,9.83-10.18,14.51-14.89a1.84,1.84,0,0,1,1.79-.06c4.76,4.85,9.44,9.78,14.36,14.92-4.53,4.47-9.36,9.26-14.27,14a1.9,1.9,0,0,1-1.85,0C383.41,487.65,378.54,482.9,373.81,478.32Z"/></svg>