<svg xmlns="http://www.w3.org/2000/svg" viewBox="0 0 725.95 208.8"><defs><style>.cls-1{fill:#fbfbe7;}</style></defs><g id="Layer_2" data-name="Layer 2"><g id="Layer_1-2" data-name="Layer 1"><path class="cls-1" d="M66.83,146.52H0c1.28-1.52,1.86-2.58,2.76-3.2,3.51-2.43,7.21-4.59,10.63-7.12a5.55,5.55,0,0,0,2.13-3.75q.17-54.51,0-109a5.85,5.85,0,0,0-2.23-4c-3.43-2.53-7.17-4.63-10.71-7A8.41,8.41,0,0,1,.9,10.21a7.36,7.36,0,0,1,2.44-1c25.76,0,51.53-.16,77.29.11a65.53,65.53,0,0,1,28.22,6.49c16.48,8,22.9,23.79,21,40.71-2.53,22.54-18.34,33.18-36,37.17-9.81,2.22-19.75,2-29.69,2-4.28,0-8.56,0-12.84,0-1.75,0-2.51.59-2.5,2.41,0,11.62,0,23.23.11,34.85a4.47,4.47,0,0,0,2.1,3.11c4.46,2.58,9.11,4.85,13.62,7.35a15.09,15.09,0,0,1,2.66,2.42Zm-18-94.18c0,11.81,0,23.61,0,35.42,0,2.08.46,3.07,2.81,3,5.56-.15,11.14.12,16.69-.12,9.43-.4,17.1-4.44,21.33-13,7.86-15.82,8.19-32.19.68-48.16C85.47,19.16,76.58,14,64.89,14.07c-4.17,0-8.36.17-12.52-.05-2.74-.13-3.59.75-3.56,3.51C48.94,29.13,48.86,40.74,48.87,52.34Z"/><path class="cls-1" d="M509,146.55c-1.77.09-2.72.18-3.67.18-10.05,0-20.1-.09-30.15.08-2.57,0-3.7-.89-4.39-3.19-.92-3-2.06-6-3.14-9-.33-.89-.77-1.74-1.13-2.56-3.31,3.35-6.18,6.79-9.58,9.59-8.75,7.21-19.06,8.66-29.82,6.53a39.8,39.8,0,0,1-12.65-4.85c-12.76-7.72-15.65-31.49-.6-42.26,7.82-5.59,16.72-8.06,25.78-10.36,7.88-2,15.75-4,23.59-6.22.93-.26,2.33-1.39,2.32-2.11-.11-7.62.17-15.33-.91-22.83-1.26-8.74-12.14-13.25-19.89-8.88a8.15,8.15,0,0,0-1.86,1.89c-8.6,9.76-17.17,19.55-25.81,29.27a12.69,12.69,0,0,1-2.83,1.85,16.49,16.49,0,0,1-.8-3.24c-.4-9.33-.67-18.66-1.12-28-.1-2.18.48-3.17,2.76-3.54,17.2-2.8,34.45-5,51.93-3.38a40.2,40.2,0,0,1,18.25,5.91,24.59,24.59,0,0,1,11.93,21.7q.15,30.09,0,60.17a5.4,5.4,0,0,0,2.62,5.16c2.4,1.57,4.66,3.38,6.9,5.19A20.54,20.54,0,0,1,509,146.55ZM465.68,87.79c-4.86,1.73-9.07,3.14-13.22,4.71-14.14,5.38-20.35,17.62-16.38,32.2,2.67,9.85,13,14.46,21.56,9.3,4.92-3,8.64-6.69,8.19-13.52-.59-9-.15-18-.15-27.06Z"/><path class="cls-1" d="M726,146.53c-1.76.1-2.71.2-3.66.2-10.14,0-20.29,0-30.44.05-2.09,0-3.24-.52-3.87-2.64-1-3.22-2.22-6.36-3.37-9.52-.32-.88-.73-1.74-1.26-3-1.54,1.9-2.72,3.46-4,4.94-9.63,11-21.76,14.21-35.83,11.59-8-1.48-14.9-4.78-19-12-6.52-11.61-6.13-28.42,10.26-37.69,6.93-3.91,14.5-5.83,22.1-7.76q11.82-3,23.58-6.26c.84-.23,2.07-1.32,2-2-.13-7.62.11-15.31-.93-22.83-1.19-8.69-12.19-13.3-19.85-8.92a7.52,7.52,0,0,0-1.66,1.67Q647,67.21,633.87,82.05a11.07,11.07,0,0,1-2.6,1.65,12.53,12.53,0,0,1-.83-2.92c-.41-9.52-.7-19-1.13-28.56-.09-1.94.41-2.86,2.43-3.19,17.49-2.93,35-5.13,52.81-3.42a39.89,39.89,0,0,1,17.16,5.53c8.23,5,12.4,12.45,12.46,22,.12,20.05.08,40.11,0,60.17,0,2.33.61,3.89,2.59,5.17a84.73,84.73,0,0,1,6.91,5.19A20.16,20.16,0,0,1,726,146.53Zm-43.3-58.75c-4.82,1.71-9,3.13-13.19,4.71-14.22,5.37-20.53,18-16.36,32.52,2.77,9.64,13.17,14.1,21.54,9,4.93-3,8.62-6.74,8.15-13.57-.59-8.59-.14-17.26-.14-25.89Z"/><path class="cls-1" d="M337,141.92c1.63.12,2.59.25,3.54.26,6.67,0,13.33-.09,20,0a5.62,5.62,0,0,0,5.19-2.67c7.1-9.92,14.32-19.76,21.49-29.63a5.31,5.31,0,0,1,.7-1c.73-.59,1.51-1.11,2.26-1.66a8.77,8.77,0,0,1,.88,2.58c.05,5.06,0,10.13-.06,15.19q-.06,9.38-.12,18.76c0,.87-.12,1.74-.19,2.74H301.37c.63-2.39.72-4.75,1.79-6.52Q329,97.64,355.05,55.33c.54-.89,1-1.85,1.71-3.24-1.47-.14-2.4-.29-3.34-.3-6.06,0-12.13.07-18.2,0a5.26,5.26,0,0,0-4.71,2.44c-6.85,9.13-13.77,18.2-20.67,27.29a7.77,7.77,0,0,1-1.3,1.62,2.87,2.87,0,0,1-1.82.59c-.27,0-.6-.93-.65-1.46a26.87,26.87,0,0,1,0-3c0-9.73.05-19.45,0-29.18,0-2.08.65-2.75,2.72-2.75q40.43.07,80.86,0c.58,0,1.16.11,2.64.25-.57,2.29-.62,4.63-1.67,6.37q-25.38,41.85-51,83.54C338.81,138.76,338.09,140,337,141.92Z"/><path class="cls-1" d="M236.55,141.9c1.34.12,2.19.27,3,.27,6.87,0,13.73,0,20.6.05a5.12,5.12,0,0,0,4.7-2.4c7.33-10.25,14.79-20.41,22.26-30.56a11.66,11.66,0,0,1,2.4-1.91,10.21,10.21,0,0,1,.88,2.89c0,11.32-.1,22.63-.17,34,0,.68-.1,1.36-.17,2.29H200.75c.66-2.43.79-4.78,1.87-6.56q25.78-42.31,51.77-84.49c.55-.89,1-1.85,1.78-3.28-1.54-.16-2.56-.35-3.58-.35-6,0-11.94.06-17.91-.06a5.25,5.25,0,0,0-4.74,2.39C223.47,62.8,216.89,71.39,210.36,80a13.7,13.7,0,0,1-1.66,2.1,19,19,0,0,1-2.54,1.64,11.45,11.45,0,0,1-.7-2.67c-.05-9.73,0-19.46,0-29.19V47.56h85.43c.94,2.53.24,4.71-1.13,6.93Q269.81,87,250,119.48q-6,9.9-12.07,19.83C237.48,140,237.13,140.79,236.55,141.9Z"/><path class="cls-1" d="M606.66,49.42c0,1.2,0,2.08,0,3-.38,10.11-.75,20.23-1.19,30.34a11.93,11.93,0,0,1-.91,2.91,10.59,10.59,0,0,1-2.46-1.79c-7.3-9.66-15-19.07-21.62-29.17-4-6.15-13.78-6.23-18.39-2.36-5.43,4.57-8.5,10.52-10.29,17.06-4,14.62-4.56,29.4-.19,44,2.84,9.51,8.06,17.31,18.09,20.61,11.79,3.87,25.31-.72,33.12-11.1a56,56,0,0,0,3.31-4.94c.91-1.53,1.55-2.9,3.82-1.66s.91,2.73.38,4c-8.16,19.41-24.3,29.47-45.61,28.78-15-.48-28-5.3-37.94-16.93-6.94-8.12-10.45-17.76-11.42-28.22-1.39-15.08,1.1-29.3,11.06-41.41,7.16-8.71,16.6-13.73,27.5-16,13.36-2.79,26.71-1.41,40,.61C598.14,47.75,602.3,48.62,606.66,49.42Z"/><path class="cls-1" d="M138.81,146.46a14.66,14.66,0,0,1,1.51-2.21,9.5,9.5,0,0,1,2.4-1.74c6.46-3,8.09-8,7.93-15-.52-22.11-.24-44.25-.13-66.37,0-2.82-.79-4.63-3.25-6a84.7,84.7,0,0,1-7.4-5,18.94,18.94,0,0,1-2.24-2.52c1.77-.12,2.72-.24,3.68-.24,12.42,0,24.85.07,37.27-.07,2.78,0,3.49.85,3.48,3.54-.09,27.18,0,54.37-.12,81.55,0,3.2.66,5.47,3.62,7.07a50.73,50.73,0,0,1,6.32,4.45,19.23,19.23,0,0,1,2.25,2.57Z"/><path class="cls-1" d="M147.23,18.32c6.31-6.52,11.88-12.3,17.54-18a2.19,2.19,0,0,1,2.16-.07c5.76,5.86,11.42,11.82,17.38,18-5.49,5.4-11.33,11.19-17.26,16.89a2.29,2.29,0,0,1-2.24.06C158.84,29.6,153,23.86,147.23,18.32Z"/><path class="cls-1" d="M302.21,208.25v-30h10.71a8.23,8.23,0,0,1,4.43,1.22,8.85,8.85,0,0,1,3.13,3.27,9.11,9.11,0,0,1,1.16,4.52,9,9,0,0,1-4.37,7.83,8.2,8.2,0,0,1-4.35,1.21h-5.48v11.94Zm5.23-17.16h4.93a3.85,3.85,0,0,0,2-.56,4.23,4.23,0,0,0,1.47-1.5,4.16,4.16,0,0,0,.54-2.1,4.12,4.12,0,0,0-2-3.62,3.85,3.85,0,0,0-2-.56h-4.93Z"/><path class="cls-1" d="M334.75,208.25v-30H340v30Z"/><path class="cls-1" d="M354.33,208.25V203l17.2-19.54h-17.2v-5.22h24.25v5.22L361.38,203h17.2v5.23Z"/><path class="cls-1" d="M392.29,208.25V203l17.2-19.54h-17.2v-5.22h24.25v5.22L399.33,203h17.21v5.23Z"/><path class="cls-1" d="M430.24,208.25v-30h18.81v5.22H435.47v6.09h10.77v5.22H435.47V203h13.58v5.23Z"/><path class="cls-1" d="M462.59,208.25v-30h11.5a8.13,8.13,0,0,1,4.41,1.22,8.9,8.9,0,0,1,3.13,3.26,9.09,9.09,0,0,1,1.16,4.53,9.32,9.32,0,0,1-.74,3.74,8.89,8.89,0,0,1-5.09,4.83l7.18,12.41h-6l-6.94-11.94h-3.36v11.94Zm5.23-17.16h5.67a3.89,3.89,0,0,0,2-.56A4.34,4.34,0,0,0,477,189a4.07,4.07,0,0,0,.55-2.1,4.11,4.11,0,0,0-.55-2.12,4.34,4.34,0,0,0-1.48-1.5,3.89,3.89,0,0,0-2-.56h-5.67Z"/><path class="cls-1" d="M497.42,208.25v-30h5.23v30Z"/><path class="cls-1" d="M526.36,178.26h6l10.9,30h-5.55l-1.93-5.32H523L521,208.25h-5.54Zm-1.5,19.45h9l-4.52-12.36Z"/><path class="cls-1" d="M583.34,208.8a8.86,8.86,0,0,1-4.72-1.28,9.46,9.46,0,0,1-3.28-3.4,9,9,0,0,1-1.21-4.55,10.11,10.11,0,0,1,.25-2.4,6.91,6.91,0,0,1,.88-2A16.11,16.11,0,0,1,577,193c.72-.78,1.62-1.71,2.7-2.8-.58-.6-1.08-1.14-1.49-1.61a8,8,0,0,1-1-1.38,5.69,5.69,0,0,1-.53-1.38,7.76,7.76,0,0,1-.16-1.61,6.65,6.65,0,0,1,1-3.52,6.83,6.83,0,0,1,2.5-2.45,6.93,6.93,0,0,1,6.85,0,7,7,0,0,1,2.48,2.47,6.7,6.7,0,0,1,.93,3.49,7.45,7.45,0,0,1-.16,1.65,4.87,4.87,0,0,1-.53,1.4,9,9,0,0,1-1,1.37c-.41.47-.9,1-1.49,1.56l5.66,5.65,5.4-5.41v7.39l-1.74,1.73,5,5-3.7,3.69-4.95-4.95c-1.1,1.1-2,2-2.83,2.72a15.8,15.8,0,0,1-2.15,1.68,6.9,6.9,0,0,1-2,.86A10.54,10.54,0,0,1,583.34,208.8Zm0-5.22a3.92,3.92,0,0,0,1.3-.19,3.38,3.38,0,0,0,1.12-.64q.56-.47,1.32-1.23c.5-.52,1.14-1.16,1.91-1.93l-5.65-5.65-2,2a11.78,11.78,0,0,0-1.21,1.32,3.48,3.48,0,0,0-.61,1.08,3.67,3.67,0,0,0-.19,1.26,3.78,3.78,0,0,0,.57,2.06,4.08,4.08,0,0,0,1.48,1.41A3.92,3.92,0,0,0,583.34,203.58Zm0-16.28,1.44-1.4a3.54,3.54,0,0,0,.67-.82,2.08,2.08,0,0,0,.18-.93,2,2,0,0,0-.73-1.67,2.41,2.41,0,0,0-1.56-.6,2.19,2.19,0,0,0-1.58.66,2.17,2.17,0,0,0-.67,1.61,2.13,2.13,0,0,0,.2,1,3.72,3.72,0,0,0,.7.86C582.32,186.28,582.77,186.72,583.34,187.3Z"/><path class="cls-1" d="M633.06,208.25v-30H644a9.35,9.35,0,0,1,4.3,1,7.57,7.57,0,0,1,3,2.79,7.9,7.9,0,0,1,1.12,4.27,7.77,7.77,0,0,1-.32,2.21,6.12,6.12,0,0,1-1,2,4.09,4.09,0,0,1-1.72,1.32,4.54,4.54,0,0,1,2.27,1.24,6.41,6.41,0,0,1,1.37,2.11,10.36,10.36,0,0,1,.68,2.46,16.48,16.48,0,0,1,.18,2.33,7.76,7.76,0,0,1-1.18,4.24,8.54,8.54,0,0,1-3.16,3,8.9,8.9,0,0,1-4.38,1.1Zm5.22-18.38h5.1a4,4,0,0,0,2.71-1,3.31,3.31,0,0,0,1.13-2.61,3.16,3.16,0,0,0-1.13-2.63,4.25,4.25,0,0,0-2.71-.89h-5.1Zm0,13.9h6.39a4.44,4.44,0,0,0,2.31-.62,4.7,4.7,0,0,0,1.65-1.72,4.93,4.93,0,0,0,.62-2.48,4.48,4.48,0,0,0-.62-2.27,5.09,5.09,0,0,0-1.65-1.74,4.21,4.21,0,0,0-2.31-.66h-6.39Z"/><path class="cls-1" d="M675,178.26h6l10.91,30h-5.55l-1.93-5.32H671.55l-1.93,5.32h-5.55Zm-1.49,19.45h9L678,185.35Z"/><path class="cls-1" d="M704.22,208.25v-30h11.5a8.13,8.13,0,0,1,4.41,1.22,8.9,8.9,0,0,1,3.13,3.26,9.09,9.09,0,0,1,1.16,4.53,9.32,9.32,0,0,1-.74,3.74,8.89,8.89,0,0,1-5.09,4.83l7.18,12.41h-6l-6.94-11.94h-3.37v11.94Zm5.22-17.16h5.68a3.85,3.85,0,0,0,2-.56,4.17,4.17,0,0,0,1.48-1.5,4.07,4.07,0,0,0,.56-2.1,4.12,4.12,0,0,0-.56-2.12,4.17,4.17,0,0,0-1.48-1.5,3.85,3.85,0,0,0-2-.56h-5.68Z"/></g></g></svg>