<svg id="Layer_1" data-name="Layer 1" xmlns="http://www.w3.org/2000/svg" viewBox="0 0 1080 1080"><defs><style>.cls-1{fill:#130c0e;}.cls-2{fill:#fbfbe7;}</style></defs><rect class="cls-1" x="-1.52" y="-1.38" width="1078.85" height="1081.41"/><path class="cls-2" d="M181,464.87l-30.17-6.62,2.36-10.78a8.52,8.52,0,0,1,2.21-4.18,9.14,9.14,0,0,1,4-2.43,9.68,9.68,0,0,1,9.14,2,9.48,9.48,0,0,1,2.57,3.92,8.42,8.42,0,0,1,.26,4.64L170.11,457l12,2.63Zm-16.11-9.05,1.09-5a4,4,0,0,0-.11-2.17,4.37,4.37,0,0,0-1.19-1.81,4.24,4.24,0,0,0-2-1,4.38,4.38,0,0,0-2.25.08,4.17,4.17,0,0,0-1.83,1.15,4,4,0,0,0-1,1.93l-1.08,5Z"/><path class="cls-2" d="M188.75,432.83l-29.63-8.75,1.52-5.17,29.63,8.76Z"/><path class="cls-2" d="M194.47,414.07l-5-1.94L177,388.37l-6.36,16.54-5-1.94,9-23.31,5,1.94,12.42,23.76,6.36-16.53,5,1.93Z"/><path class="cls-2" d="M208.87,378.6l-4.8-2.44-9.87-24.93-8,15.78-4.8-2.44,11.35-22.25,4.8,2.44,9.87,24.93,8.06-15.78,4.79,2.44Z"/><path class="cls-2" d="M227,344.77,201,328.16l10.42-16.33,4.54,2.89-7.52,11.8,5.28,3.37,6-9.36,4.54,2.89-6,9.36,7.14,4.56,7.53-11.8,4.54,2.9Z"/><path class="cls-2" d="M245.06,317.55l-24.42-18.92,7.26-9.37a8.47,8.47,0,0,1,3.77-2.82,9.38,9.38,0,0,1,9.06,1.43,9.57,9.57,0,0,1,2.57,3,9,9,0,0,1,1.11,3.54A9.24,9.24,0,0,1,244,298l14.63,2-3.8,4.91L240.76,303l-2.12,2.74,9.72,7.52Zm-10.68-15.08,3.59-4.62a4.14,4.14,0,0,0,.83-2,4.4,4.4,0,0,0-.29-2.15,4.39,4.39,0,0,0-3.44-2.66,4.37,4.37,0,0,0-2.15.25,4,4,0,0,0-1.74,1.31l-3.58,4.62Z"/><path class="cls-2" d="M267.31,290.15l-23-20.66,3.6-4,23,20.67Z"/><path class="cls-2" d="M266.28,246.67l4.5-4.26,29.39,14.71L296,261.05l-5.21-2.61-9.61,9.1,2.32,5.34-4.15,3.93Zm12.65,15.61,6.75-6.39-12.14-6Z"/><path class="cls-2" d="M332.18,233a9.15,9.15,0,0,1-4.75,1.64,9.68,9.68,0,0,1-4.77-1,9.25,9.25,0,0,1-3.68-3.17,10.28,10.28,0,0,1-1.17-2.19,6.63,6.63,0,0,1-.42-2.21,17.47,17.47,0,0,1,.19-2.81c.16-1.07.38-2.39.68-3.94-.85-.17-1.58-.34-2.2-.5a7.7,7.7,0,0,1-1.63-.62,5.36,5.36,0,0,1-1.25-.87,6.62,6.62,0,0,1-1.07-1.27,6.84,6.84,0,0,1-1.25-3.54,7.12,7.12,0,0,1,.71-3.55,7.13,7.13,0,0,1,5.83-4,7.06,7.06,0,0,1,3.55.66,6.85,6.85,0,0,1,2.82,2.43,7.72,7.72,0,0,1,.82,1.49,5.13,5.13,0,0,1,.35,1.5,8.61,8.61,0,0,1,0,1.74q-.11,1-.36,2.19l8.1,1.53,1.44-7.75,4.3,6.29-.47,2.48L345,219l-1,5.29L337,222.91c-.3,1.58-.57,2.9-.83,4a16.39,16.39,0,0,1-.85,2.68,7.26,7.26,0,0,1-1.2,1.89A11,11,0,0,1,332.18,233Zm-12.49-18.3c.19-.9.33-1.57.42-2a3.78,3.78,0,0,0,.09-1.09,2.28,2.28,0,0,0-.39-.9,2.12,2.12,0,0,0-1.59-1,2.49,2.49,0,0,0-1.68.4,2.36,2.36,0,0,0-.59,3.24,2,2,0,0,0,.73.7,3.46,3.46,0,0,0,1.09.32Zm9.45,13.85a4.34,4.34,0,0,0,1-.91,3.53,3.53,0,0,0,.58-1.2c.13-.47.27-1.08.4-1.81s.3-1.65.51-2.76l-8.09-1.52c-.21,1.15-.39,2.1-.53,2.84a14,14,0,0,0-.27,1.83,3.94,3.94,0,0,0,.11,1.27,4.15,4.15,0,0,0,.58,1.18,3.88,3.88,0,0,0,1.68,1.42,4.26,4.26,0,0,0,2.08.35A4,4,0,0,0,329.14,228.59Z"/><path class="cls-2" d="M374.59,206.6l-13.38-27.85,10.15-4.87a9.73,9.73,0,0,1,4.42-1,7.89,7.89,0,0,1,4.07,1.23,8.26,8.26,0,0,1,2.95,3.47,8.34,8.34,0,0,1,.68,2.19,6.13,6.13,0,0,1,0,2.3,4.14,4.14,0,0,1-1,2,4.66,4.66,0,0,1,2.66.14,6.43,6.43,0,0,1,2.21,1.35,10.78,10.78,0,0,1,1.73,2,16.38,16.38,0,0,1,1.2,2.08,7.93,7.93,0,0,1,.8,4.46,8.79,8.79,0,0,1-1.61,4.16,9.24,9.24,0,0,1-3.59,3Zm-3.35-19.39,4.74-2.28a4.13,4.13,0,0,0,2.08-2.12,3.4,3.4,0,0,0-.13-2.93,3.22,3.22,0,0,0-2.21-1.94,4.4,4.4,0,0,0-2.91.39l-4.74,2.27Zm6.2,12.9,5.93-2.84a4.54,4.54,0,0,0,1.87-1.61,4.82,4.82,0,0,0,.77-2.33,5.11,5.11,0,0,0-.53-2.58,4.6,4.6,0,0,0-1.59-1.83,5.22,5.22,0,0,0-2.31-.88,4.2,4.2,0,0,0-2.44.42l-5.93,2.84Z"/><path class="cls-2" d="M402.78,160.49l5.82-2.13,21.18,25.13-5.36,2L420.67,181l-12.43,4.56,0,5.82-5.36,2Zm5.45,19.35,8.72-3.2-8.75-10.35Z"/><path class="cls-2" d="M441.29,180.11l-7.66-29.93,11.48-2.94a8.5,8.5,0,0,1,4.72.1,9.33,9.33,0,0,1,6.26,6.68,9.55,9.55,0,0,1,.22,3.92,9.06,9.06,0,0,1-1.3,3.47,9.16,9.16,0,0,1-2.54,2.65l10.33,10.55-6,1.53-10-10.13-3.36.86,3.05,11.91Zm.84-18.46,5.66-1.45a4,4,0,0,0,1.89-1.07,4.4,4.4,0,0,0,1.09-1.88,4.12,4.12,0,0,0,0-2.23,4.2,4.2,0,0,0-1.1-2,4.45,4.45,0,0,0-1.86-1.12,4,4,0,0,0-2.17,0L440,153.34Z"/><path class="cls-2" d="M626.43,175.2l7.71-29.91L644.82,148a8.47,8.47,0,0,1,4.1,2.35,9.21,9.21,0,0,1,2.29,4.07,9.45,9.45,0,0,1-6.37,11.5,8.48,8.48,0,0,1-4.66.09l-5.47-1.41-3.06,11.9Zm9.63-15.77,4.91,1.26a4,4,0,0,0,2.17,0,4.26,4.26,0,0,0,2.94-3.07,4.33,4.33,0,0,0,0-2.26,4.25,4.25,0,0,0-1.08-1.87,4,4,0,0,0-1.89-1.08l-4.91-1.26Z"/><path class="cls-2" d="M658.2,184.14,668,154.85l5.1,1.71-9.81,29.29Z"/><path class="cls-2" d="M676.64,190.51l2.11-5L703,174l-16.3-7,2.11-4.95,23,9.81-2.12,4.95L685.43,188.4l16.29,7-2.11,4.95Z"/><path class="cls-2" d="M711.63,206.2l2.62-4.71,25.26-9L724,183.91l2.62-4.71,21.82,12.15-2.61,4.7-25.27,9,15.48,8.62-2.61,4.7Z"/><path class="cls-2" d="M744.77,225.53,762.3,200.1l16,11-3.06,4.44-11.51-7.94-3.56,5.16,9.14,6.29-3.06,4.44-9.14-6.3-4.8,7,11.51,7.94-3,4.43Z"/><path class="cls-2" d="M771.3,244.52l19.77-23.74,9.11,7.59a8.37,8.37,0,0,1,2.68,3.87,9.16,9.16,0,0,1,.32,4.65,9.34,9.34,0,0,1-2.07,4.35,9.5,9.5,0,0,1-3.05,2.47,9.06,9.06,0,0,1-3.57,1,9.23,9.23,0,0,1-3.64-.5l-2.5,14.55-4.76-4,2.37-14-2.66-2.22L775.43,248Zm15.45-10.14,4.49,3.75a4,4,0,0,0,2,.9,4.43,4.43,0,0,0,2.16-.21,4.45,4.45,0,0,0,2.78-3.34,4.38,4.38,0,0,0-.18-2.16,4,4,0,0,0-1.24-1.79l-4.5-3.74Z"/><path class="cls-2" d="M797.93,267.76l21.47-22.21,3.87,3.75L801.8,271.51Z"/><path class="cls-2" d="M841.42,268.28l4.1,4.65-15.74,28.85L826,297.49l2.79-5.11L820,282.45l-5.42,2.13-3.78-4.28Zm-16,12.09,6.15,7L838,275.42Z"/><path class="cls-2" d="M852.69,334.61a9.12,9.12,0,0,1-1.47-4.81,9.6,9.6,0,0,1,1.15-4.73,9.31,9.31,0,0,1,3.29-3.56,10.7,10.7,0,0,1,2.24-1.1,7.27,7.27,0,0,1,2.22-.33,16.32,16.32,0,0,1,2.8.29c1.07.2,2.38.47,3.92.81.2-.84.4-1.56.58-2.18a7.94,7.94,0,0,1,.67-1.6,5.62,5.62,0,0,1,.91-1.22,7.66,7.66,0,0,1,1.31-1A6.87,6.87,0,0,1,873.9,314a7.1,7.1,0,0,1,3.51.83,7.11,7.11,0,0,1,3.76,6,7.1,7.1,0,0,1-.79,3.52,6.81,6.81,0,0,1-2.52,2.73,7.83,7.83,0,0,1-1.53.77,5.4,5.4,0,0,1-1.51.3,8.82,8.82,0,0,1-1.73-.1c-.64-.1-1.36-.24-2.19-.44l-1.81,8,7.69,1.72-6.43,4.06-2.47-.55L866.3,348l-5.25-1.2,1.59-7c-1.57-.36-2.87-.68-3.93-1a16.6,16.6,0,0,1-2.65-.95,6.77,6.77,0,0,1-1.84-1.27A10.93,10.93,0,0,1,852.69,334.61Zm4.55-2.87a4.39,4.39,0,0,0,.88,1,3.55,3.55,0,0,0,1.18.62c.47.15,1.06.31,1.79.47l2.74.61,1.81-8-2.83-.63a15.24,15.24,0,0,0-1.81-.33,4.08,4.08,0,0,0-1.28.07,4.25,4.25,0,0,0-1.2.53A4,4,0,0,0,857,327.7a4.23,4.23,0,0,0-.41,2.06A4,4,0,0,0,857.24,331.74Zm14.18-9,2,.49a3.62,3.62,0,0,0,1.08.13,2.42,2.42,0,0,0,2-1.91,2.47,2.47,0,0,0-.34-1.69,2.26,2.26,0,0,0-1.44-1,2.21,2.21,0,0,0-1.77.3,2.07,2.07,0,0,0-.73.71,3.41,3.41,0,0,0-.36,1.07C871.75,321.33,871.61,322,871.42,322.78Z"/><path class="cls-2" d="M877.61,378l28.31-12.37,4.51,10.32a9.72,9.72,0,0,1,.85,4.45,7.76,7.76,0,0,1-1.38,4,8.08,8.08,0,0,1-3.57,2.82,7.69,7.69,0,0,1-2.21.61,6.55,6.55,0,0,1-2.3-.1,4.11,4.11,0,0,1-2-1.08,4.81,4.81,0,0,1-.24,2.66,6.51,6.51,0,0,1-1.43,2.16,10.38,10.38,0,0,1-2,1.66,17.61,17.61,0,0,1-2.12,1.12,7.94,7.94,0,0,1-4.49.64,8.85,8.85,0,0,1-4.09-1.76,9.17,9.17,0,0,1-2.84-3.69Zm6.38,3.08,2.63,6a4.62,4.62,0,0,0,1.54,1.93,4.86,4.86,0,0,0,2.3.85,5.1,5.1,0,0,0,2.6-.44,4.5,4.5,0,0,0,1.89-1.52,5.32,5.32,0,0,0,1-2.27,4.3,4.3,0,0,0-.33-2.46l-2.63-6Zm13.13-5.73,2.1,4.82a4.07,4.07,0,0,0,2,2.15,3.42,3.42,0,0,0,2.93,0,3.22,3.22,0,0,0,2-2.14,4.36,4.36,0,0,0-.28-2.93l-2.1-4.81Z"/><path class="cls-2" d="M922.66,407.79l1.93,5.9L898.7,434l-1.77-5.43,4.59-3.59-4.11-12.58-5.82-.2-1.77-5.43Zm-19.52,4.75,2.88,8.83L916.68,413Z"/><path class="cls-2" d="M901.66,445.52l30.18-6.58,2.52,11.58a8.41,8.41,0,0,1-.26,4.7,9.16,9.16,0,0,1-2.6,3.87,9.43,9.43,0,0,1-4.3,2.16,9.68,9.68,0,0,1-3.93.08,9.22,9.22,0,0,1-6-4.06l-10.9,9.94-1.33-6.06,10.49-9.6-.74-3.39-12,2.62Zm18.41,1.5,1.25,5.71a3.88,3.88,0,0,0,1,1.92,4.19,4.19,0,0,0,1.83,1.16,4.11,4.11,0,0,0,2.23.1,4.19,4.19,0,0,0,2-1,4.31,4.31,0,0,0,1.19-1.82,4,4,0,0,0,.12-2.17l-1.25-5.71Z"/><path class="cls-2" d="M905.31,604.4,935.48,611l-2.36,10.77a8.55,8.55,0,0,1-2.21,4.19,9.14,9.14,0,0,1-4,2.43,9.39,9.39,0,0,1-4.8.17,9.3,9.3,0,0,1-6.91-6.13,8.41,8.41,0,0,1-.26-4.64l1.21-5.52-12-2.63Zm16.11,9.05-1.09,4.95a3.9,3.9,0,0,0,.11,2.17,4.22,4.22,0,0,0,1.19,1.81,4.48,4.48,0,0,0,4.24.93,4.37,4.37,0,0,0,1.83-1.14,4,4,0,0,0,1-1.93l1.09-5Z"/><path class="cls-2" d="M897.52,636.43l29.63,8.76-1.52,5.16L896,641.6Z"/><path class="cls-2" d="M891.79,655.2l5,1.93,12.41,23.76,6.37-16.53,5,1.93-9,23.31-5-1.93-12.42-23.76-6.36,16.53-5-1.93Z"/><path class="cls-2" d="M877.4,690.66l4.79,2.45L892.07,718l8-15.79,4.79,2.45L893.56,727l-4.79-2.45-9.88-24.93-8,15.79-4.79-2.45Z"/><path class="cls-2" d="M859.25,724.5l26,16.61-10.41,16.33-4.54-2.9,7.52-11.79-5.28-3.37-6,9.36-4.54-2.9,6-9.36-7.15-4.55-7.52,11.79-4.54-2.89Z"/><path class="cls-2" d="M841.21,751.72l24.42,18.92L858.37,780a8.4,8.4,0,0,1-3.78,2.82,9.3,9.3,0,0,1-9.05-1.43,9.5,9.5,0,0,1-2.58-3,9.09,9.09,0,0,1-1.1-3.53,9.23,9.23,0,0,1,.38-3.65l-14.63-2,3.8-4.9,14.1,1.88,2.12-2.74L837.91,756Zm10.67,15.08-3.58,4.62a3.89,3.89,0,0,0-.83,2,4.3,4.3,0,0,0,.29,2.15,4.44,4.44,0,0,0,3.44,2.66,4.37,4.37,0,0,0,2.15-.26,4,4,0,0,0,1.74-1.3l3.58-4.63Z"/><path class="cls-2" d="M819,779.11l22.95,20.67-3.6,4-23-20.66Z"/><path class="cls-2" d="M820,822.59l-4.5,4.27-29.4-14.71,4.15-3.93,5.21,2.61,9.61-9.1-2.32-5.34,4.15-3.93ZM807.34,807l-6.75,6.39,12.14,6Z"/><path class="cls-2" d="M754.09,836.23a9,9,0,0,1,4.75-1.64,9.68,9.68,0,0,1,4.77,1,9.17,9.17,0,0,1,3.68,3.17,10,10,0,0,1,1.17,2.18,7.23,7.23,0,0,1,.42,2.22,16.39,16.39,0,0,1-.2,2.8c-.15,1.08-.38,2.4-.67,3.95.85.17,1.58.34,2.2.5a8.55,8.55,0,0,1,1.63.61,5.36,5.36,0,0,1,1.25.87,7.84,7.84,0,0,1,1.07,1.27,6.93,6.93,0,0,1,1.25,3.55,7.17,7.17,0,0,1-.71,3.54,6.85,6.85,0,0,1-2.36,2.73,7,7,0,0,1-3.47,1.24,7.26,7.26,0,0,1-3.55-.66,6.87,6.87,0,0,1-2.82-2.43,7.5,7.5,0,0,1-.82-1.5,5.33,5.33,0,0,1-.36-1.49,9.4,9.4,0,0,1,0-1.74c.08-.64.2-1.37.36-2.2l-8.09-1.52-1.45,7.74-4.29-6.28.47-2.49-7.13-1.33,1-5.28,7.08,1.33c.3-1.57.57-2.89.83-4a16.54,16.54,0,0,1,.85-2.69,7,7,0,0,1,1.2-1.88A10.14,10.14,0,0,1,754.09,836.23Zm3,4.45a4.26,4.26,0,0,0-1,.91,3.57,3.57,0,0,0-.58,1.19c-.13.48-.27,1.09-.4,1.82s-.31,1.65-.51,2.75l8.09,1.53c.21-1.16.39-2.11.53-2.85a16.11,16.11,0,0,0,.27-1.82,4,4,0,0,0-.11-1.28,4.28,4.28,0,0,0-.58-1.18,3.94,3.94,0,0,0-1.68-1.42,4.26,4.26,0,0,0-2.08-.34A4,4,0,0,0,757.12,840.68Zm9.46,13.84c-.19.9-.33,1.58-.42,2a3.76,3.76,0,0,0-.09,1.09,2.18,2.18,0,0,0,.39.89,2.12,2.12,0,0,0,1.59,1,2.49,2.49,0,0,0,1.68-.39,2.24,2.24,0,0,0,.95-1.48,2.2,2.2,0,0,0-.36-1.76,2.09,2.09,0,0,0-.73-.7,3.72,3.72,0,0,0-1.09-.33C768,854.8,767.4,854.68,766.58,854.52Z"/><path class="cls-2" d="M711.68,862.66l13.37,27.85-10.14,4.87a9.47,9.47,0,0,1-4.42,1,7.71,7.71,0,0,1-4.07-1.23,8.16,8.16,0,0,1-2.95-3.46,8.34,8.34,0,0,1-.68-2.19,6.13,6.13,0,0,1,0-2.3,4.05,4.05,0,0,1,1-2,4.84,4.84,0,0,1-2.66-.14,6.75,6.75,0,0,1-2.21-1.35,10.47,10.47,0,0,1-1.73-2,16.44,16.44,0,0,1-1.21-2.07,8,8,0,0,1-.79-4.47,8.75,8.75,0,0,1,1.61-4.15,9.32,9.32,0,0,1,3.58-3Zm-2.86,6.49L702.9,872a4.47,4.47,0,0,0-1.87,1.61,4.68,4.68,0,0,0-.77,2.33,5.11,5.11,0,0,0,.53,2.58,4.67,4.67,0,0,0,1.59,1.83,5.1,5.1,0,0,0,2.3.87,4.29,4.29,0,0,0,2.45-.41l5.93-2.84Zm6.2,12.91-4.73,2.28a4.1,4.1,0,0,0-2.08,2.12,3.43,3.43,0,0,0,.12,2.93,3.27,3.27,0,0,0,2.22,1.93,4.34,4.34,0,0,0,2.91-.38l4.73-2.27Z"/><path class="cls-2" d="M683.49,908.77l-5.82,2.14-21.19-25.14,5.37-2,3.75,4.45L678,883.7l0-5.82,5.36-2ZM678,889.43l-8.73,3.2L678.07,903Z"/><path class="cls-2" d="M645,889.15l7.67,29.93L641.16,922a8.49,8.49,0,0,1-4.72-.09,9.36,9.36,0,0,1-6.27-6.69,9.71,9.71,0,0,1-.21-3.92,9,9,0,0,1,1.3-3.46,9.19,9.19,0,0,1,2.54-2.66l-10.33-10.54,6-1.54,10,10.14,3.36-.86-3-11.91Zm-.83,18.46-5.66,1.45a4,4,0,0,0-1.89,1.08A4.36,4.36,0,0,0,635.5,912a4.15,4.15,0,0,0,0,2.24,4.21,4.21,0,0,0,1.1,2,4.28,4.28,0,0,0,1.85,1.12,3.94,3.94,0,0,0,2.18,0l5.66-1.45Z"/><path class="cls-2" d="M459.83,894.06,452.13,924l-10.69-2.75a8.42,8.42,0,0,1-4.09-2.36,9.21,9.21,0,0,1-2.29-4.07,9.34,9.34,0,0,1,0-4.81,9.22,9.22,0,0,1,2.36-4.25,9.36,9.36,0,0,1,4-2.43,8.36,8.36,0,0,1,4.65-.09l5.47,1.4,3.07-11.9Zm-9.62,15.78-4.91-1.27a3.94,3.94,0,0,0-2.18,0,4.4,4.4,0,0,0-2.93,5.32,4.23,4.23,0,0,0,1.08,1.88,4,4,0,0,0,1.88,1.07l4.92,1.27Z"/><path class="cls-2" d="M428.07,885.12l-9.81,29.29-5.11-1.71L423,883.41Z"/><path class="cls-2" d="M409.63,878.76l-2.11,5-24.2,11.56,16.3,7-2.12,4.95-23-9.8,2.12-5,24.19-11.56-16.29-7,2.11-4.95Z"/><path class="cls-2" d="M374.64,863.07l-2.62,4.7-25.27,9,15.49,8.62-2.62,4.7-21.83-12.14,2.62-4.71,25.27-9-15.49-8.61,2.62-4.7Z"/><path class="cls-2" d="M341.5,843.73,324,869.17l-16-11,3.05-4.43,11.52,7.94,3.56-5.16-9.14-6.3,3.06-4.43,9.13,6.3,4.81-7-11.52-7.94,3.06-4.43Z"/><path class="cls-2" d="M315,824.75l-19.78,23.73-9.1-7.58a8.45,8.45,0,0,1-2.68-3.88,9.25,9.25,0,0,1,1.75-9,9.37,9.37,0,0,1,3-2.47,9.12,9.12,0,0,1,7.21-.47l2.5-14.55,4.76,4-2.38,14,2.66,2.22,7.87-9.45Zm-15.45,10.13L295,831.14a4,4,0,0,0-2-.9,4.43,4.43,0,0,0-2.16.21,4.07,4.07,0,0,0-1.82,1.29,4.21,4.21,0,0,0-1,2,4.39,4.39,0,0,0,.18,2.16,4,4,0,0,0,1.24,1.78l4.5,3.75Z"/><path class="cls-2" d="M288.34,801.5l-21.48,22.21L263,820l21.48-22.21Z"/><path class="cls-2" d="M244.84,801l-4.1-4.65,15.75-28.85,3.78,4.28-2.79,5.11,8.75,9.93,5.42-2.13,3.78,4.29ZM260.9,788.9l-6.15-7-6.47,11.91Z"/><path class="cls-2" d="M233.57,734.65a9.09,9.09,0,0,1,1.48,4.81,9.88,9.88,0,0,1-1.15,4.74,9.33,9.33,0,0,1-3.3,3.56,10.56,10.56,0,0,1-2.23,1.09,7,7,0,0,1-2.23.34,16.43,16.43,0,0,1-2.79-.3c-1.07-.19-2.38-.46-3.92-.81-.2.84-.4,1.57-.58,2.18a8,8,0,0,1-.67,1.61,5.88,5.88,0,0,1-.91,1.22,8.05,8.05,0,0,1-1.31,1,6.88,6.88,0,0,1-3.59,1.12,7.28,7.28,0,0,1-3.52-.83,7.16,7.16,0,0,1-3.75-6,7.24,7.24,0,0,1,.78-3.53,7,7,0,0,1,2.53-2.73,8.43,8.43,0,0,1,1.53-.77,5.4,5.4,0,0,1,1.51-.3,8.88,8.88,0,0,1,1.73.11c.64.09,1.36.24,2.18.43l1.82-8-7.69-1.72,6.43-4.07,2.47.56L220,721.3l5.25,1.2-1.59,7c1.56.35,2.87.68,3.93,1a15.23,15.23,0,0,1,2.64,1,6.86,6.86,0,0,1,1.85,1.26A10.83,10.83,0,0,1,233.57,734.65Zm-18.73,11.84-2-.5a4,4,0,0,0-1.09-.12,2.38,2.38,0,0,0-2,1.91,2.53,2.53,0,0,0,.33,1.69,2.38,2.38,0,0,0,3.22.71,2.16,2.16,0,0,0,.73-.71,3.57,3.57,0,0,0,.36-1.08C214.52,747.93,214.66,747.3,214.84,746.49Zm14.18-9a4.43,4.43,0,0,0-.87-1,3.55,3.55,0,0,0-1.18-.61,17.82,17.82,0,0,0-1.79-.47l-2.74-.61-1.81,8,2.82.63a15.72,15.72,0,0,0,1.82.33,3.74,3.74,0,0,0,1.27-.06,3.92,3.92,0,0,0,1.2-.54,3.77,3.77,0,0,0,1.48-1.62,4.15,4.15,0,0,0,.42-2.07A3.91,3.91,0,0,0,229,737.53Z"/><path class="cls-2" d="M208.65,691.29l-28.31,12.36-4.5-10.31a9.65,9.65,0,0,1-.85-4.46,7.9,7.9,0,0,1,1.37-4,8.68,8.68,0,0,1,5.79-3.43,6.55,6.55,0,0,1,2.3.11,4.09,4.09,0,0,1,2,1.07,4.78,4.78,0,0,1,.23-2.65,7,7,0,0,1,1.43-2.17,11.07,11.07,0,0,1,2.05-1.65,17.76,17.76,0,0,1,2.12-1.13,8,8,0,0,1,4.49-.63,8.75,8.75,0,0,1,4.09,1.76,9.23,9.23,0,0,1,2.84,3.68Zm-19.5,2.64-2.1-4.81A4.07,4.07,0,0,0,185,687a3.38,3.38,0,0,0-2.93,0,3.26,3.26,0,0,0-2,2.15,4.39,4.39,0,0,0,.27,2.92l2.11,4.81Zm13.12-5.73-2.63-6a4.44,4.44,0,0,0-1.54-1.92,4.72,4.72,0,0,0-2.29-.85,5.05,5.05,0,0,0-2.61.44,4.46,4.46,0,0,0-1.88,1.52,5,5,0,0,0-1,2.27,4.21,4.21,0,0,0,.33,2.46l2.63,6Z"/><path class="cls-2" d="M163.6,661.47l-1.92-5.89,25.88-20.27,1.78,5.44-4.59,3.59,4.11,12.58,5.82.19,1.77,5.43Zm19.53-4.75-2.88-8.83-10.66,8.38Z"/><path class="cls-2" d="M184.61,623.74l-30.18,6.59-2.52-11.58a8.44,8.44,0,0,1,.26-4.71,9.22,9.22,0,0,1,2.6-3.87,9.32,9.32,0,0,1,4.3-2.15,9.5,9.5,0,0,1,3.93-.08,9.14,9.14,0,0,1,6,4.06l10.91-9.94,1.32,6.05-10.48,9.61.74,3.38,12-2.62Zm-18.41-1.49L165,616.54a4,4,0,0,0-1-1.93,4.35,4.35,0,0,0-1.83-1.16,4.2,4.2,0,0,0-2.23-.1,4.33,4.33,0,0,0-2,1,4.38,4.38,0,0,0-1.18,1.82,3.9,3.9,0,0,0-.11,2.17l1.24,5.71Z"/><rect class="cls-2" x="531.84" y="902.99" width="23.48" height="23.48" transform="translate(806.02 -116.45) rotate(45)"/><rect class="cls-2" x="531.84" y="138.25" width="23.48" height="23.48" transform="translate(265.27 -340.44) rotate(45)"/><rect class="cls-2" x="148.53" y="518.31" width="23.48" height="23.48" transform="translate(421.75 41.92) rotate(45)"/><rect class="cls-2" x="913.26" y="519.08" width="23.48" height="23.48" transform="translate(646.28 -498.6) rotate(45)"/><path class="cls-2" d="M297.7,580.94H242.42a17,17,0,0,1,2.29-2.65c2.9-2,6-3.79,8.79-5.89a4.54,4.54,0,0,0,1.76-3.1q.13-45.07,0-90.16a4.9,4.9,0,0,0-1.85-3.33c-2.84-2.09-5.93-3.83-8.86-5.8a6.88,6.88,0,0,1-1.38-1.81,5.92,5.92,0,0,1,2-.83c21.31,0,42.62-.14,63.93.09a54.22,54.22,0,0,1,23.35,5.37c13.62,6.63,18.93,19.67,17.36,33.66-2.09,18.65-15.17,27.45-29.74,30.75-8.12,1.83-16.34,1.64-24.56,1.62-3.54,0-7.08,0-10.61,0-1.45,0-2.08.49-2.07,2,0,9.61,0,19.21.09,28.82a3.7,3.7,0,0,0,1.73,2.57c3.7,2.13,7.54,4,11.27,6.08a12.89,12.89,0,0,1,2.2,2Zm-14.85-77.89c0,9.77,0,19.53,0,29.29,0,1.72.38,2.55,2.32,2.49,4.6-.12,9.22.1,13.81-.09,7.8-.33,14.14-3.68,17.64-10.72,6.5-13.08,6.77-26.62.56-39.83-4-8.58-11.38-12.87-21.06-12.79-3.45,0-6.91.13-10.35,0-2.27-.12-3,.62-2.95,2.89C282.9,483.85,282.84,493.45,282.85,503.05Z"/><path class="cls-2" d="M663.4,581c-1.45.07-2.24.15-3,.15-8.31,0-16.62-.08-24.93.06-2.13,0-3.07-.73-3.64-2.63-.75-2.51-1.7-5-2.6-7.43-.27-.74-.63-1.45-.93-2.12-2.74,2.77-5.11,5.62-7.92,7.93-7.24,6-15.76,7.16-24.66,5.4a32.9,32.9,0,0,1-10.47-4c-10.55-6.38-12.94-26-.49-35,6.47-4.63,13.82-6.67,21.32-8.57q9.78-2.47,19.51-5.14c.77-.22,1.93-1.16,1.92-1.75-.09-6.3.14-12.68-.76-18.88-1-7.23-10-11-16.44-7.35a7,7,0,0,0-1.55,1.57q-10.66,12.11-21.34,24.21a11,11,0,0,1-2.34,1.53,13.2,13.2,0,0,1-.66-2.69c-.34-7.71-.56-15.42-.93-23.13-.08-1.81.4-2.62,2.28-2.93,14.23-2.32,28.5-4.13,43-2.8a33.22,33.22,0,0,1,15.1,4.89,20.32,20.32,0,0,1,9.86,17.95q.12,24.88,0,49.76a4.47,4.47,0,0,0,2.16,4.27,69.73,69.73,0,0,1,5.71,4.29A16.2,16.2,0,0,1,663.4,581Zm-35.82-48.6c-4,1.43-7.5,2.59-10.93,3.9-11.7,4.44-16.84,14.57-13.56,26.63,2.21,8.14,10.79,12,17.83,7.69,4.08-2.47,7.15-5.53,6.78-11.19-.49-7.43-.12-14.91-.12-22.38Z"/><path class="cls-2" d="M842.84,581c-1.46.09-2.24.17-3,.17-8.4,0-16.79,0-25.18,0-1.73,0-2.69-.43-3.21-2.18-.78-2.67-1.83-5.26-2.78-7.88-.27-.73-.61-1.44-1-2.47-1.27,1.57-2.25,2.86-3.31,4.08-8,9.09-18,11.76-29.64,9.59-6.6-1.22-12.31-4-15.68-9.95-5.39-9.6-5.08-23.51,8.48-31.17,5.73-3.24,12-4.82,18.28-6.42q9.78-2.47,19.5-5.18c.7-.19,1.71-1.09,1.7-1.65-.11-6.3.09-12.67-.77-18.88-1-7.19-10.08-11-16.42-7.38a6.19,6.19,0,0,0-1.37,1.38c-7.23,8.2-14.43,16.41-21.69,24.57a9.18,9.18,0,0,1-2.15,1.37,10.86,10.86,0,0,1-.69-2.42c-.33-7.87-.57-15.75-.93-23.62-.07-1.6.34-2.36,2-2.64,14.47-2.42,29-4.24,43.68-2.82a32.91,32.91,0,0,1,14.19,4.57,20.32,20.32,0,0,1,10.31,18.18q.14,24.88,0,49.77a4.46,4.46,0,0,0,2.14,4.28,67.52,67.52,0,0,1,5.71,4.29A15.7,15.7,0,0,1,842.84,581ZM807,532.36c-4,1.42-7.48,2.59-10.91,3.89-11.76,4.45-17,14.87-13.53,26.9,2.29,8,10.89,11.67,17.81,7.43,4.08-2.5,7.13-5.58,6.74-11.22-.49-7.11-.11-14.28-.11-21.42Z"/><path class="cls-2" d="M521.15,577.14c1.35.1,2.14.21,2.93.21,5.51,0,11-.07,16.53,0a4.66,4.66,0,0,0,4.29-2.21c5.88-8.2,11.84-16.35,17.78-24.51a3.83,3.83,0,0,1,.58-.79c.59-.49,1.24-.92,1.87-1.37a7.41,7.41,0,0,1,.72,2.14c0,4.18,0,8.37-.05,12.56q0,7.75-.1,15.51c0,.72-.09,1.44-.15,2.27H491.68c.52-2,.6-3.93,1.48-5.39q21.38-35.1,42.92-70.09c.45-.73.8-1.53,1.41-2.68-1.21-.11-2-.24-2.76-.24-5,0-10,0-15.05-.05a4.35,4.35,0,0,0-3.9,2c-5.66,7.56-11.39,15.06-17.1,22.57a6.18,6.18,0,0,1-1.07,1.34,2.33,2.33,0,0,1-1.5.49c-.23,0-.5-.77-.55-1.21a22.4,22.4,0,0,1,0-2.46c0-8,.05-16.09,0-24.14,0-1.72.54-2.27,2.25-2.27q33.43.06,66.87,0c.49,0,1,.09,2.19.21-.47,1.89-.51,3.83-1.38,5.27q-21,34.61-42.16,69.09C522.64,574.52,522.05,575.58,521.15,577.14Z"/><path class="cls-2" d="M438.07,577.12c1.1.1,1.81.23,2.52.23,5.67,0,11.35,0,17,0a4.17,4.17,0,0,0,3.88-2c6.07-8.47,12.24-16.88,18.42-25.28a10.11,10.11,0,0,1,2-1.58,8.82,8.82,0,0,1,.72,2.39c0,9.36-.08,18.73-.14,28.09,0,.56-.08,1.12-.14,1.89H408.46c.55-2,.65-4,1.54-5.43q21.33-35,42.83-69.87c.45-.75.83-1.53,1.47-2.72-1.28-.13-2.12-.29-3-.29-4.93,0-9.87,0-14.81,0a4.32,4.32,0,0,0-3.92,2c-5.35,7.17-10.79,14.28-16.2,21.41a11,11,0,0,1-1.37,1.73,17.43,17.43,0,0,1-2.09,1.36,8.6,8.6,0,0,1-.58-2.21c-.05-8.05,0-16.1,0-24.15V499.1H483c.78,2.09.19,3.89-.93,5.73q-16.49,26.85-32.88,53.75-5,8.19-10,16.4C438.84,575.57,438.55,576.2,438.07,577.12Z"/><path class="cls-2" d="M744.18,500.63c0,1,0,1.72,0,2.45-.32,8.37-.62,16.73-1,25.1a9.51,9.51,0,0,1-.75,2.4,8.62,8.62,0,0,1-2-1.48c-6-8-12.39-15.77-17.87-24.13-3.33-5.08-11.4-5.15-15.21-1.94-4.49,3.77-7,8.69-8.52,14.1-3.32,12.09-3.77,24.32-.15,36.43,2.35,7.86,6.67,14.31,15,17,9.75,3.21,20.93-.59,27.39-9.18a44.69,44.69,0,0,0,2.74-4.08c.75-1.27,1.28-2.4,3.16-1.38s.75,2.26.31,3.3c-6.74,16-20.1,24.37-37.72,23.8-12.43-.4-23.16-4.38-31.38-14a40.84,40.84,0,0,1-9.44-23.35c-1.15-12.47.91-24.23,9.14-34.24,5.92-7.2,13.73-11.36,22.75-13.25,11.05-2.31,22.09-1.17,33.1.5C737.13,499.25,740.57,500,744.18,500.63Z"/><path class="cls-2" d="M357.23,580.89a11.82,11.82,0,0,1,1.25-1.82,7.76,7.76,0,0,1,2-1.45c5.35-2.5,6.7-6.57,6.56-12.42-.43-18.29-.2-36.59-.11-54.89,0-2.33-.65-3.83-2.68-5a72,72,0,0,1-6.12-4.13,14.38,14.38,0,0,1-1.85-2.08c1.46-.1,2.25-.2,3-.2,10.28,0,20.56.06,30.83-.06,2.31,0,2.89.71,2.88,2.93-.07,22.48,0,45-.1,67.45,0,2.65.55,4.52,3,5.84a42.52,42.52,0,0,1,5.23,3.68,17.64,17.64,0,0,1,1.85,2.13Z"/><path class="cls-2" d="M364.19,474.91c5.23-5.39,9.83-10.18,14.51-14.89a1.82,1.82,0,0,1,1.79,0c4.76,4.84,9.44,9.77,14.37,14.91-4.54,4.47-9.37,9.26-14.27,14a1.88,1.88,0,0,1-1.85,0C373.8,484.24,368.93,479.49,364.19,474.91Z"/></svg>